<svg width="37" height="36" viewBox="0 0 37 36" fill="none" xmlns="http://www.w3.org/2000/svg">
<path fill-rule="evenodd" clip-rule="evenodd" d="M8 17.25C7.48447 17.25 6.98242 17.3078 6.5 17.4173V6C6.5 4.34315 7.84315 3 9.5 3H20.5147C22.106 3 23.6321 3.63215 24.7574 4.75736L28.7426 8.74265C29.8679 9.86786 30.5 11.394 30.5 12.9853V17.4173C30.0176 17.3078 29.5156 17.25 29 17.25H27.5C25.8475 17.25 24.2915 18.0281 23.3 19.35L21.5 21.75C20.7919 22.6943 19.6804 23.25 18.5 23.25C17.3197 23.25 16.2082 22.6943 15.5 21.75L13.7 19.35C12.7085 18.0281 11.1525 17.25 9.5 17.25H8ZM12.5 12.375C11.8787 12.375 11.375 12.8787 11.375 13.5C11.375 14.1213 11.8787 14.625 12.5 14.625H24.5C25.1213 14.625 25.625 14.1213 25.625 13.5C25.625 12.8787 25.1213 12.375 24.5 12.375H12.5ZM11.375 7.5C11.375 6.87869 11.8787 6.375 12.5 6.375H18.5C19.1213 6.375 19.625 6.87869 19.625 7.5C19.625 8.12132 19.1213 8.625 18.5 8.625H12.5C11.8787 8.625 11.375 8.12132 11.375 7.5Z" fill="#FFA319"/>
<path fill-rule="evenodd" clip-rule="evenodd" d="M33.5 24V28.5C33.5 30.9854 31.4854 33 29 33H8C5.51473 33 3.5 30.9854 3.5 28.5V24C3.5 21.5146 5.51473 19.5 8 19.5H9.5C10.4443 19.5 11.3334 19.9446 11.9 20.7L13.7 23.1C14.8331 24.6108 16.6115 25.5 18.5 25.5C20.3885 25.5 22.1669 24.6108 23.3 23.1L25.1 20.7C25.6665 19.9446 26.5558 19.5 27.5 19.5H29C31.4854 19.5 33.5 21.5146 33.5 24Z" fill="url(#paint0_linear_15062_39134)"/>
<defs>
<linearGradient id="paint0_linear_15062_39134" x1="18.5" y1="0.961382" x2="18.5" y2="33" gradientUnits="userSpaceOnUse">
<stop stop-color="white"/>
<stop offset="1" stop-color="white" stop-opacity="0"/>
</linearGradient>
</defs>
</svg>
