<svg width="37" height="36" viewBox="0 0 37 36" fill="none" xmlns="http://www.w3.org/2000/svg">
<g clip-path="url(#clip0_15062_39096)">
<path d="M18.5 0C13.2414 0 9.00781 4.24512 9.00781 9.49219C9.00781 12.785 10.7711 15.8955 13.6138 17.6115C15.4451 18.7073 16.8181 20.4192 17.5525 22.611C17.7286 22.9735 18.1344 23.1146 18.5371 23.1146C18.9409 23.1146 19.3467 22.7964 19.5228 22.4338C20.182 20.4192 21.5549 18.7073 23.3904 17.6094C26.2289 15.8955 27.9922 12.785 27.9922 9.49219C27.9922 4.28358 23.7862 0 18.5 0ZM18.5 14.7656C17.9175 14.7656 17.4453 14.2934 17.4453 13.7109C17.4453 13.1285 17.9175 12.6562 18.5 12.6562C19.0825 12.6562 19.5547 13.1285 19.5547 13.7109C19.5547 14.2934 19.0825 14.7656 18.5 14.7656ZM19.568 10.3625C19.568 10.9444 19.0891 11.5089 18.5072 11.5089C17.9242 11.5089 17.4452 11.1298 17.4452 10.5469C17.4452 9.48291 18.0127 8.67853 18.8563 8.37675C19.2735 8.22635 19.5547 7.82775 19.5547 7.38281C19.5547 6.80091 19.0819 6.32812 18.5 6.32812C17.9181 6.32812 17.4453 6.80091 17.4453 7.38281C17.4453 7.96577 16.9736 8.4375 16.3906 8.4375C15.8077 8.4375 15.3359 7.96577 15.3359 7.38281C15.3359 5.63808 16.7553 4.21875 18.5 4.21875C20.2447 4.21875 21.6641 5.63808 21.6641 7.38281C21.6641 8.71453 20.8216 9.91245 19.568 10.3625Z" fill="#FFA319"/>
<path d="M35.4453 10.5469H34.3906V28.6172C34.3906 30.3619 32.9713 31.7812 31.2266 31.7812H21.4839C21.0482 33.009 19.875 33.8906 18.5 33.8906C17.125 33.8906 15.9519 33.009 15.5161 31.7812H5.77344C4.0287 31.7812 2.60938 30.3619 2.60938 28.6172V10.5469H1.55469C0.971727 10.5469 0.5 11.0186 0.5 11.6016V32.8359C0.5 33.4189 0.971727 33.8906 1.55469 33.8906H13.8445L15.6449 35.691C15.8427 35.8888 16.1105 36 16.3906 36H20.6094C20.8895 36 21.1573 35.8888 21.355 35.691L23.1555 33.8906H35.4453C36.0283 33.8906 36.5 33.4189 36.5 32.8359V11.6016C36.5 11.0186 36.0283 10.5469 35.4453 10.5469Z" fill="url(#paint0_linear_15062_39096)"/>
<path d="M15.5955 23.4101C15.528 23.2815 14.9463 20.8664 12.5303 19.4211C9.05415 17.323 6.89844 13.5193 6.89844 9.49219C6.89844 8.43441 7.02613 7.46416 7.2898 6.5269C7.3073 6.45792 7.34 6.39647 7.35877 6.32812H5.84375C5.26079 6.32812 4.78906 6.79985 4.78906 7.38281V28.6172C4.78906 29.2001 5.26079 29.6719 5.84375 29.6719H16.3906C16.9725 29.6719 17.4453 30.1447 17.4453 30.7266V25.0389C16.0314 24.5839 15.63 23.4548 15.5955 23.4101Z" fill="url(#paint1_linear_15062_39096)"/>
<path d="M31.1562 6.32812H29.6346C29.6611 6.42248 29.7056 6.5077 29.7298 6.60312C29.9749 7.4693 30.1016 8.43237 30.1016 9.49219C30.1016 13.5193 27.9479 17.322 24.481 19.4149C22.0617 20.8619 21.5928 23.0316 21.4199 23.3556C21.0372 24.1436 20.342 24.7322 19.5547 25.0209V30.7266C19.5547 30.1447 20.0275 29.6719 20.6094 29.6719H31.1562C31.7392 29.6719 32.2109 29.2001 32.2109 28.6172V7.38281C32.2109 6.79985 31.7392 6.32812 31.1562 6.32812Z" fill="url(#paint2_linear_15062_39096)"/>
</g>
<defs>
<linearGradient id="paint0_linear_15062_39096" x1="18.5" y1="10.5469" x2="18.5" y2="36" gradientUnits="userSpaceOnUse">
<stop stop-color="#2E2A47"/>
<stop offset="1" stop-color="white" stop-opacity="0"/>
</linearGradient>
<linearGradient id="paint1_linear_15062_39096" x1="11.1172" y1="6.32812" x2="11.1172" y2="30.7266" gradientUnits="userSpaceOnUse">
<stop stop-color="#2E2A47"/>
<stop offset="1" stop-color="white" stop-opacity="0"/>
</linearGradient>
<linearGradient id="paint2_linear_15062_39096" x1="25.8828" y1="6.32812" x2="25.8828" y2="30.7266" gradientUnits="userSpaceOnUse">
<stop stop-color="#2E2A47"/>
<stop offset="1" stop-color="white" stop-opacity="0"/>
</linearGradient>
<clipPath id="clip0_15062_39096">
<rect width="36" height="36" fill="white" transform="translate(0.5)"/>
</clipPath>
</defs>
</svg>
