<svg width="37" height="36" viewBox="0 0 37 36" fill="none" xmlns="http://www.w3.org/2000/svg">
<g clip-path="url(#clip0_15062_39112)">
<path d="M23.7734 36H11.1172C5.30199 36 0.5 31.198 0.5 25.3828C0.5 20.0651 4.52539 15.6547 9.64745 14.9379C9.96955 14.7865 10.7275 14.8359 11.1172 14.8359V11.6719C11.1172 11.2826 11.3314 10.9252 11.6744 10.7418C12.013 10.5601 12.4303 10.5766 12.7569 10.7943L18.8193 14.8359H23.7734C29.5886 14.8359 34.3906 19.5676 34.3906 25.3828C34.3906 31.198 29.5886 36 23.7734 36ZM11.1172 23.2734C9.95436 23.2734 9.00781 24.22 9.00781 25.3828C9.00781 26.5456 9.95436 27.4922 11.1172 27.4922C12.28 27.4922 13.2266 26.5456 13.2266 25.3828C13.2266 24.22 12.28 23.2734 11.1172 23.2734ZM17.4453 23.2734C16.2825 23.2734 15.3359 24.22 15.3359 25.3828C15.3359 26.5456 16.2825 27.4922 17.4453 27.4922C18.6081 27.4922 19.5547 26.5456 19.5547 25.3828C19.5547 24.22 18.6081 23.2734 17.4453 23.2734ZM23.7734 23.2734C22.6106 23.2734 21.6641 24.22 21.6641 25.3828C21.6641 26.5456 22.6106 27.4922 23.7734 27.4922C24.9363 27.4922 25.8828 26.5456 25.8828 25.3828C25.8828 24.22 24.9363 23.2734 23.7734 23.2734Z" fill="url(#paint0_linear_15062_39112)"/>
<path d="M35.1951 19.821C33.1316 15.6268 28.7554 12.7265 23.7734 12.7265H19.4579L13.9269 9.03926C12.9365 8.37761 11.6833 8.34351 10.6774 8.88267C9.64843 9.43265 9.00781 10.5018 9.00781 11.6718V12.9026C6.63153 13.3031 4.43792 14.3849 2.71674 15.9046C2.68067 15.5482 2.60938 15.1986 2.60938 14.8359C2.60938 9.02069 7.41137 4.28901 13.2266 4.28901H18.1807L24.2431 0.177139C24.5697 -0.0405483 24.987 -0.0570717 25.3257 0.124617C25.6686 0.30792 25.8828 0.665319 25.8828 1.05464V4.28901C26.2726 4.28901 27.0305 4.23958 27.3526 4.39097C32.4746 5.1078 36.5 9.51921 36.5 14.8359C36.5 16.6161 36.0172 18.3017 35.1951 19.821Z" fill="#FFA319"/>
</g>
<defs>
<linearGradient id="paint0_linear_15062_39112" x1="17.4453" y1="70.8565" x2="17.4453" y2="10.6172" gradientUnits="userSpaceOnUse">
<stop stop-color="white"/>
<stop offset="1" stop-color="white" stop-opacity="0"/>
</linearGradient>
<clipPath id="clip0_15062_39112">
<rect width="36" height="36" fill="white" transform="matrix(1 0 0 -1 0.5 36)"/>
</clipPath>
</defs>
</svg>
