<svg width="131" height="47" viewBox="0 0 131 47" fill="none" xmlns="http://www.w3.org/2000/svg">
<path d="M13.4517 20.2335C13.4152 21.0903 13.397 22.1751 13.397 23.4877C13.397 24.8003 13.4152 25.8941 13.4517 26.7692C13.4881 27.6261 13.561 28.3097 13.6704 28.8202C13.798 29.3306 13.9712 29.6861 14.19 29.8867C14.427 30.0872 14.7369 30.1875 15.1198 30.1875C15.5026 30.1875 15.8034 30.0872 16.0222 29.8867C16.2592 29.6861 16.4324 29.3306 16.5418 28.8202C16.6694 28.3097 16.7514 27.6261 16.7879 26.7692C16.8244 25.8941 16.8426 24.8003 16.8426 23.4877C16.8426 22.1751 16.8244 21.0903 16.7879 20.2335C16.7514 19.3584 16.6694 18.6656 16.5418 18.1552C16.4324 17.6447 16.2592 17.2892 16.0222 17.0887C15.8034 16.8881 15.5026 16.7878 15.1198 16.7878C14.7369 16.7878 14.427 16.8881 14.19 17.0887C13.9712 17.2892 13.798 17.6447 13.6704 18.1552C13.561 18.6656 13.4881 19.3584 13.4517 20.2335Z" fill="#52525B"/>
<path fill-rule="evenodd" clip-rule="evenodd" d="M14.4207 3.1733C7.82692 3.3144 2.58572 8.7556 2.69152 15.35L2.82152 23.4524L2.69152 31.5548C2.58572 38.1493 7.82692 43.5905 14.4207 43.7315L22.5243 43.9049L30.6279 43.7315C37.2217 43.5905 42.463 38.1493 42.3572 31.5548L42.2272 23.4524L42.3572 15.35C42.463 8.7556 37.2217 3.3144 30.6279 3.1733L22.5243 3L14.4207 3.1733ZM22.8043 33.7698L19.7415 36.4224L16.9522 33.4143C16.7334 33.4508 16.5146 33.4782 16.2959 33.4964C16.0953 33.5328 15.8674 33.5511 15.6122 33.5511H15.12C13.8256 33.5511 12.7317 33.3779 11.8384 33.0315C10.9451 32.6851 10.225 32.1108 9.67812 31.3087C9.13122 30.4883 8.73922 29.44 8.50222 28.1639C8.26522 26.8695 8.14672 25.3107 8.14672 23.4877C8.14672 21.6646 8.26522 20.115 8.50222 18.8388C8.73922 17.5444 9.13122 16.4962 9.67812 15.694C10.225 14.8736 10.9451 14.2811 11.8384 13.9165C12.7317 13.5336 13.8256 13.3422 15.12 13.3422C16.4144 13.3422 17.5082 13.5336 18.4015 13.9165C19.2948 14.2811 20.015 14.8736 20.5619 15.694C21.1088 16.4962 21.5008 17.5444 21.7378 18.8388C21.9748 20.115 22.0933 21.6646 22.0933 23.4877C22.0933 25.3654 21.9657 26.9515 21.7104 28.2459C21.4552 29.5403 21.0359 30.5977 20.4525 31.4181L22.8043 33.7698ZM31.4365 20.753V19.6592C31.4365 18.5471 31.3271 17.7905 31.1083 17.3895C30.8896 16.9884 30.5341 16.7878 30.0418 16.7878C29.659 16.7878 29.3491 16.8881 29.1121 17.0887C28.8933 17.2892 28.7201 17.6447 28.5925 18.1552C28.4831 18.6656 28.4102 19.3584 28.3737 20.2335C28.3372 21.0903 28.319 22.1751 28.319 23.4877C28.319 24.8003 28.3372 25.8941 28.3737 26.7692C28.4102 27.6261 28.4831 28.3097 28.5925 28.8202C28.7201 29.3306 28.8933 29.6861 29.1121 29.8867C29.3491 30.0872 29.659 30.1875 30.0418 30.1875C30.3517 30.1875 30.607 30.1146 30.8075 29.9687C31.0081 29.8046 31.163 29.5403 31.2724 29.1757C31.3818 28.8111 31.4547 28.3279 31.4912 27.7263C31.5459 27.1065 31.5732 26.3317 31.5732 25.4019H36.4955V26.8513C36.4955 28.2186 36.3132 29.3398 35.9486 30.2148C35.584 31.0899 35.1009 31.7827 34.4993 32.2931C33.8976 32.7854 33.2049 33.1135 32.4209 33.2776C31.6553 33.4599 30.8622 33.5511 30.0418 33.5511C28.6198 33.5511 27.4531 33.3779 26.5415 33.0315C25.63 32.6851 24.919 32.1108 24.4085 31.3087C23.898 30.4883 23.5425 29.44 23.342 28.1639C23.1597 26.8695 23.0685 25.3107 23.0685 23.4877C23.0685 21.6281 23.1779 20.0512 23.3967 18.7568C23.6337 17.4624 24.0257 16.4141 24.5726 15.612C25.1195 14.8098 25.8396 14.2355 26.7329 13.8891C27.6262 13.5245 28.7292 13.3422 30.0418 13.3422C31.1904 13.3422 32.1657 13.4881 32.9679 13.7798C33.77 14.0715 34.4172 14.4908 34.9095 15.0377C35.4199 15.5664 35.7845 16.2136 36.0033 16.9793C36.2403 17.7267 36.3588 18.5745 36.3588 19.5225V20.753H31.4365Z" fill="#52525B"/>
<path fill-rule="evenodd" clip-rule="evenodd" d="M66.2551 16.9364L70.7133 21.5629L75.1715 16.9364H82.9172L74.5803 24.8676L82.9172 32.7987H75.1715L70.7133 28.1604L66.2551 32.7987H58.4976L66.8346 24.8676L58.4976 16.9364H66.2551ZM65.8253 24.8676L56.7578 16.2415H66.5515L70.7133 20.5604L74.8751 16.2415H84.3192V16.2297H100.325C103.985 16.1923 107.083 19.2529 107.033 22.9252C107.032 24.2461 106.675 25.4637 105.96 26.5474C105.422 27.3677 104.74 28.0426 103.923 28.5558L107.336 32.9379V30.096C107.336 27.8694 109 26.4499 110.914 25.5085C112.847 24.5581 115.286 23.9643 117.317 23.4839L117.32 23.4832L117.343 23.4774C118.595 23.1695 119.661 22.9074 120.42 22.6247C120.804 22.4814 121.056 22.3517 121.2 22.2415C121.218 22.2275 121.233 22.2151 121.246 22.2044C121.202 22.164 121.112 22.1037 120.935 22.0342C120.522 21.8725 119.817 21.7507 118.749 21.7504C117.608 21.7622 116.638 21.855 115.976 22.0872C115.65 22.2017 115.453 22.3321 115.342 22.4545C115.248 22.5596 115.192 22.6843 115.197 22.8799L115.214 23.5915H107.584V22.8966C107.584 21.47 107.864 20.2772 108.424 19.2999C108.987 18.3182 109.807 17.6014 110.807 17.0873C112.769 16.0786 115.472 15.8284 118.486 15.8284C121.572 15.8284 124.134 16.1845 125.948 17.1013C126.866 17.5659 127.612 18.1842 128.125 18.9883C128.639 19.7945 128.891 20.7435 128.891 21.8226C128.891 23.8195 127.686 25.0914 126.209 25.9204C124.775 26.7253 122.97 27.1824 121.471 27.5481H128.631V33.4701H107.75L107.759 33.4819H99.3952L96.4032 29.6107H91.9082V33.4819H84.6442L84.6572 33.4937H74.8746L70.7133 29.1643L66.552 33.4937H56.7578L65.8253 24.8676ZM84.3192 33.1719V16.5632L75.5895 24.8676L84.3192 33.1719ZM96.7462 28.9158L99.7382 32.7869H106.336L102.871 28.3374C103.088 28.2369 103.295 28.1257 103.494 28.0041C104.252 27.5399 104.882 26.9232 105.378 26.1658C106.017 25.198 106.336 24.1122 106.336 22.9202C106.384 19.6391 103.605 16.8892 100.329 16.9246H85.0152V32.7869H91.2112V28.9158H96.7462ZM117.824 28.243C118.041 27.9777 118.434 27.7521 118.956 27.5481C119.571 27.3073 120.363 27.0965 121.253 26.8858C124.304 26.1422 128.195 25.1272 128.195 21.8226C128.195 17.9514 124.6 16.5233 118.486 16.5233C112.737 16.5233 108.66 17.4599 108.306 22.2016C108.289 22.4248 108.28 22.6563 108.28 22.8966H114.501C114.5 22.8704 114.5 22.8446 114.501 22.8192C114.535 21.4093 116.481 21.0786 118.746 21.0554C120.957 21.0554 121.974 21.5511 121.974 22.2239C121.974 23.0543 120.012 23.537 117.548 24.1429L117.481 24.1594C113.389 25.1272 108.032 26.4727 108.032 30.096V32.7751H127.934V28.243H117.824ZM121.285 22.2577C121.285 22.2577 121.281 22.2533 121.279 22.2431C121.285 22.2523 121.285 22.2577 121.285 22.2577ZM99.4322 22.9202C99.4322 22.5487 99.1402 22.2579 98.7682 22.2579H91.9082V23.5707H98.7682C98.9682 23.5707 99.1082 23.51 99.2332 23.3848C99.3762 23.2422 99.4322 23.0996 99.4322 22.9202ZM100.128 22.9202C100.128 22.1648 99.5252 21.5629 98.7682 21.5629H91.2112V24.2656H98.7682C99.1462 24.2656 99.4662 24.1358 99.7262 23.8762C99.9982 23.6047 100.128 23.2861 100.128 22.9202Z" fill="#52525B"/>
<path d="M59.0708 44.2423H62.0387V40.1786L65.0121 44.2423H66.496L69.4695 40.1786V44.2423H72.4374V36.6249H68.7276L65.7541 40.4336L62.7863 36.6249H59.0708V44.2423Z" fill="#52525B"/>
<path d="M78.6899 36.4379C75.8243 36.4436 73.4795 37.271 73.4908 40.1559V40.7113C73.4795 43.5905 75.8243 44.4237 78.6899 44.4293C81.5499 44.4237 83.8949 43.5905 83.8839 40.7113V40.1559C83.8839 37.2767 81.5559 36.4379 78.6899 36.4379ZM80.9159 40.5243C80.9329 41.7712 79.9019 41.9979 78.6899 42.0149C77.4725 41.9979 76.4416 41.7712 76.4586 40.5243V40.3373C76.4416 39.096 77.4725 38.8693 78.6899 38.8523C79.9019 38.8693 80.9329 39.096 80.9159 40.3373V40.5243Z" fill="#52525B"/>
<path d="M92.1979 40.445C92.1979 41.2101 91.7619 41.8392 90.9919 41.8392H87.7409V39.0507H90.9919C91.7619 39.0507 92.1979 39.6741 92.1979 40.445ZM84.7729 36.6363V44.2536H91.5469C93.6369 44.282 95.1889 42.5137 95.1719 40.445C95.1889 38.3649 93.6369 36.6079 91.5469 36.6363H84.7729Z" fill="#52525B"/>
<path d="M103.435 40.53C103.452 41.7825 102.422 41.9979 101.209 42.0149C99.9918 41.9979 98.9668 41.7825 98.9778 40.53V36.6249H96.0098V40.717C95.9988 43.5962 98.3548 44.4237 101.209 44.4293C104.064 44.4237 106.42 43.5962 106.409 40.717V36.6249H103.435V40.53Z" fill="#52525B"/>
<path d="M107.745 36.6249V44.2423H116.655V41.8279H110.713V36.6249H107.745Z" fill="#52525B"/>
<path d="M117.668 44.2536H126.578V42.2983H120.636V41.3234H126.578V39.5608H120.636V38.5859H126.578V36.6363H117.668V44.2536Z" fill="#52525B"/>
<path d="M60.7797 7.6056V6.0003H65.1786C65.3917 6.0003 65.5772 6.0774 65.7284 6.2386C65.8865 6.3929 65.9621 6.5821 65.9621 6.8064C65.9621 7.0238 65.8865 7.213 65.7284 7.3743C65.5772 7.5285 65.3917 7.6056 65.1786 7.6056H60.7797ZM57.1782 3.2454V12.6668H60.7797V10.3675H66.079C67.9829 10.3956 69.5981 8.7482 69.5706 6.8064C69.5981 4.8577 67.9829 3.2243 66.079 3.2454H57.1782Z" fill="#52525B"/>
<path d="M76.7393 3C73.2615 3.007 70.416 4.0305 70.4297 7.5986V8.2856C70.416 11.8467 73.2615 12.8771 76.7393 12.8841C80.21 12.8771 83.056 11.8467 83.042 8.2856V7.5986C83.042 4.0375 80.217 3 76.7393 3ZM79.44 8.0542C79.461 9.5964 78.21 9.8768 76.7393 9.8979C75.2616 9.8768 74.0107 9.5964 74.0313 8.0542V7.8229C74.0107 6.2877 75.2616 6.0073 76.7393 5.9863C78.21 6.0073 79.461 6.2877 79.44 7.8229V8.0542Z" fill="#52525B"/>
<path d="M97.0842 9.2109L94.9462 3.2454H90.8912L88.7472 9.2109L86.6092 3.2454H82.5542L86.6092 12.6668H90.8912L92.9192 7.9561L94.9462 12.6668H99.2282L103.284 3.2454H99.2282L97.0842 9.2109Z" fill="#52525B"/>
<path d="M103.559 12.6668H114.37V10.2484H107.16V9.0426H114.37V6.8625H107.16V5.6568H114.37V3.2454H103.559V12.6668Z" fill="#52525B"/>
<path d="M116.288 3.2383V12.6598H119.889V10.3605H123.106L124.845 12.6598H128.68L126.666 10.017C127.271 9.7296 127.759 9.295 128.123 8.7272C128.495 8.1524 128.68 7.5075 128.68 6.7994C128.708 4.8506 127.092 3.2173 125.189 3.2383H116.288ZM124.281 5.9933C124.721 5.9933 125.072 6.3508 125.072 6.7994C125.072 7.0167 124.996 7.206 124.838 7.3672C124.687 7.5215 124.501 7.5986 124.281 7.5986H119.889V5.9933H124.281Z" fill="#52525B"/>
</svg>
