<svg width="147" height="62" viewBox="0 0 147 62" fill="none" xmlns="http://www.w3.org/2000/svg">
<path d="M73.7301 20.4544C74.3346 20.4459 74.8486 20.3329 74.8402 19.7115V19.6183C74.8486 18.9997 74.3346 18.8867 73.7301 18.8783C73.1229 18.8867 72.6088 18.9997 72.6173 19.6183V19.7115C72.6088 20.3329 73.1229 20.4459 73.7301 20.4544Z" fill="#52525B"/>
<path d="M51.6307 19.2059C51.6307 19.0251 51.4867 18.8811 51.3059 18.8811H49.501V19.5279H51.3059C51.3963 19.5279 51.4725 19.4968 51.5347 19.4347C51.5996 19.3697 51.6307 19.2935 51.6307 19.2059Z" fill="#52525B"/>
<path d="M61.7911 18.8726L62.3109 19.994H61.2686L61.7911 18.8726Z" fill="#52525B"/>
<path d="M84.9795 18.8726L85.4994 19.994H84.457L84.9795 18.8726Z" fill="#52525B"/>
<path d="M48.0563 42.4855L47.2881 40.8279L46.5156 42.4855H48.0563Z" fill="#52525B"/>
<path d="M66.1864 42.0095C66.1864 42.5732 65.8649 43.0367 65.2971 43.0367H62.9004V40.9824H65.2971C65.8649 40.9824 66.1864 41.4417 66.1864 42.0095Z" fill="#52525B"/>
<path d="M72.2579 40.8279L73.0262 42.4855H71.4854L72.2579 40.8279Z" fill="#52525B"/>
<path d="M81.5939 40.8405C81.8611 40.8405 82.074 41.0535 82.074 41.3207C82.074 41.4501 82.0281 41.5629 81.9321 41.6589C81.8402 41.7508 81.7275 41.7967 81.5939 41.7967H78.9258V40.8405H81.5939Z" fill="#52525B"/>
<path d="M90.4208 42.0095C90.4208 42.5732 90.0988 43.0367 89.5308 43.0367H87.1338V40.9824H89.5308C90.0988 40.9824 90.4208 41.4417 90.4208 42.0095Z" fill="#52525B"/>
<path d="M37.9127 31.5472L35.1281 25.118H30.3506V35.8333H33.8313V30.0457L36.3429 35.8333H39.4552L41.9941 30.0457V35.8333H45.4612V25.118H40.8338L37.9127 31.5472Z" fill="#52525B"/>
<path d="M59.6665 35.8333V33.1715H51.9815V31.7792H59.3526V29.1721H51.9815V27.7934H59.571V25.118H48.3779V35.8333H59.6665Z" fill="#52525B"/>
<path d="M62.6029 33.9359C63.6676 35.3146 65.5649 35.9971 67.8445 35.9971C69.5564 35.9971 70.8112 35.6494 71.6854 35.098C71.8358 35.0031 71.975 34.9021 72.1033 34.7959L72.1989 35.8333H75.1336V29.486H68.0083V31.7929H71.8167C71.7999 31.9021 71.7417 32.0735 71.658 32.2368C71.6058 32.3388 71.5436 32.4376 71.4754 32.5163C71.0796 32.9804 70.0285 33.3899 68.6635 33.3899C67.2439 33.3899 66.3293 33.0214 65.8379 32.4481C65.5103 32.0249 65.3192 31.4243 65.3192 30.5234C65.3192 29.5816 65.5103 28.94 65.8789 28.5169C66.4112 27.9163 67.3121 27.6569 68.6362 27.6569C69.8238 27.6569 70.6428 27.9299 71.025 28.2712C71.2707 28.4759 71.4618 28.7626 71.5027 28.9537H75.0381C75.0331 28.8277 75.015 28.6737 74.9846 28.5098C74.9326 28.2297 74.8447 27.9202 74.7241 27.6706C73.8778 25.9506 71.9122 24.9269 68.568 24.9269C65.6605 24.9269 63.7085 25.8141 62.6302 27.1519C61.9204 28.0664 61.5928 29.213 61.5928 30.4961C61.5928 31.9157 61.975 33.1306 62.6029 33.9359Z" fill="#52525B"/>
<path d="M65.7637 30.5234C65.7637 29.6327 65.9458 29.1176 66.213 28.8099C66.6149 28.3576 67.3482 28.1008 68.6368 28.1008C69.7826 28.1008 70.4682 28.3686 70.7299 28.6023L70.7356 28.6073L70.7414 28.6122C70.8314 28.6872 70.9137 28.7796 70.9759 28.8697C71.0374 28.9587 71.062 29.0205 71.0681 29.0421H67.565V32.2368H71.1309C71.0032 32.3811 70.7291 32.5612 70.2936 32.7059C69.8601 32.8499 69.3038 32.946 68.6641 32.946C67.3153 32.946 66.5567 32.5969 66.1828 32.1675C65.9384 31.8471 65.7637 31.3557 65.7637 30.5234Z" fill="#52525B"/>
<path d="M84.4066 29.0662L83.3896 31.0078H85.3674L84.4066 29.0662Z" fill="#52525B"/>
<path fill-rule="evenodd" clip-rule="evenodd" d="M87.2428 33.854L88.1848 35.8333H92.1298L86.7238 25.118H82.3151L76.5957 35.8333H80.4587L81.4551 33.854H87.2428ZM82.6563 31.4516L84.0077 28.8718L84.4172 27.889L84.7994 28.8581L86.0828 31.4516H82.6563Z" fill="#52525B"/>
<path fill-rule="evenodd" clip-rule="evenodd" d="M115.726 54.3871H115.72C115.644 54.3871 115.568 54.3867 115.492 54.3859V54.3871H31.9994C24.6318 54.3871 18.0599 50.9802 13.7732 45.656H26.0746V44.0968H12.6206C10.6135 41.1328 9.2686 37.6839 8.7982 33.9624H26.0746V32.4033H8.6537C8.6262 31.939 8.6123 31.4711 8.6123 31C8.6123 27.9134 9.2102 24.9666 10.2966 22.2688H26.0746V20.7097H10.992C12.6448 17.3419 15.0835 14.4297 18.0692 12.2124H101.795C102.839 11.4372 103.95 10.7469 105.117 10.1517C104.802 10.3121 104.492 10.4793 104.186 10.6532H20.4599C23.8648 8.71802 27.803 7.61292 31.9993 7.61292H115.492V7.61402C115.57 7.61325 115.648 7.61292 115.726 7.61292C128.642 7.61292 139.113 18.0836 139.113 31C139.113 43.9163 128.642 54.3871 115.726 54.3871ZM124.422 41.9688C125.469 38.8142 126.094 35.0673 126.094 31C126.094 27.2083 125.55 23.695 124.629 20.6804C124.516 20.3123 124.398 19.9517 124.275 19.5989C124.069 19.0113 123.848 18.4455 123.614 17.9033C123.298 17.1711 122.958 16.4819 122.597 15.8403C120.891 12.813 118.945 11.1826 117.129 10.6337V17.9033H121.905C122.309 18.7654 122.678 19.7041 123.004 20.7097H117.129V29.5967H124.509C124.526 30.0592 124.535 30.5271 124.535 31C124.535 31.4729 124.526 31.9408 124.509 32.4032H117.129V41.2903H123.003C122.678 42.2959 122.309 43.2346 121.905 44.0967H117.129V51.3664C118.945 50.8176 120.891 49.1871 122.597 46.1597C122.958 45.5181 123.299 44.8289 123.614 44.0967C123.905 43.4227 124.175 42.7122 124.422 41.9688ZM127.56 20.7097C128.309 23.4187 128.772 26.4225 128.877 29.5967H136.259C136.042 26.3747 135.083 23.356 133.553 20.7097H127.56ZM131.602 17.9033H126.643C125.743 15.5449 124.607 13.4935 123.295 11.8561C126.555 13.146 129.406 15.2441 131.602 17.9033ZM114.323 10.6334V17.9033H107.837C108.153 17.1711 108.493 16.4819 108.855 15.8403C110.56 12.8125 112.507 11.1819 114.323 10.6334ZM108.156 11.856C106.844 13.4934 105.709 15.5448 104.809 17.9033H99.8484C102.045 15.244 104.897 13.1458 108.156 11.856ZM103.891 20.7097H94.9104V22.2688H97.0834C96.0273 24.5189 95.3669 26.9913 95.1915 29.5967H102.574C102.68 26.4225 103.142 23.4187 103.891 20.7097ZM114.323 20.7097H106.814C106.012 23.3419 105.499 26.3529 105.383 29.5967H114.323V20.7097ZM128.877 32.4032C128.772 35.5774 128.309 38.5812 127.56 41.2903H133.553C135.083 38.644 136.042 35.6252 136.259 32.4032H128.877ZM106.814 41.2903C106.012 38.6581 105.499 35.647 105.383 32.4032H114.323V41.2903H106.814ZM103.891 41.2903C103.142 38.5812 102.68 35.5774 102.574 32.4032H95.1915C95.4085 35.6252 96.3671 38.644 97.8978 41.2903H103.891ZM126.643 44.0967C125.743 46.4551 124.607 48.5064 123.296 50.1438C126.555 48.8539 129.406 46.7558 131.602 44.0967H126.643ZM107.837 44.0967H114.323V51.3667C112.507 50.8182 110.56 49.1876 108.855 46.1597C108.493 45.5181 108.153 44.8289 107.837 44.0967ZM104.809 44.0967L94.9104 44.0968V45.6559H101.277C103.229 47.5805 105.563 49.118 108.156 50.144C106.844 48.5066 105.709 46.4552 104.809 44.0967ZM73.7293 17.675C72.3001 17.6778 71.1307 18.0902 71.1364 19.5279V19.8047C71.1307 21.2396 72.3001 21.6548 73.7293 21.6576C75.1557 21.6548 76.3251 21.2396 76.3194 19.8047V19.5279C76.3194 18.093 75.1585 17.675 73.7293 17.675ZM29.3273 17.7682V21.5644H30.8074V17.7682H29.3273ZM35.2956 19.7793L33.6291 17.7682H31.5926V21.5644H33.0727V19.2455L35.112 21.5644H36.7785V17.7682H35.2956V19.7793ZM40.5323 18.9771V21.5701H39.0523V18.9771H37.2926V17.7739H42.292V18.9771H40.5323ZM42.7892 21.5701H47.2322V20.5956H44.2692V20.1098H47.2322V19.2313H44.2692V18.7455H47.2322V17.7739H42.7892V21.5701ZM48.0202 21.5672V17.771H51.678C52.4604 17.7626 53.1242 18.4207 53.1129 19.2059C53.1129 19.4912 53.0366 19.751 52.8841 19.9827C52.7344 20.2114 52.5339 20.3866 52.2853 20.5024L53.1129 21.5672H51.5368L50.8222 20.6408H49.5003V21.5672H48.0202ZM57.2763 19.7793L55.6098 17.7682H53.5733V21.5644H55.0534V19.2455L57.0927 21.5644H58.7592V17.7682H57.2763V19.7793ZM60.5387 21.5701H58.8722L60.9087 17.7739H62.6684L64.7049 21.5701H63.0384L62.739 20.9204H60.8381L60.5387 21.5701ZM66.9645 21.5701V18.9771H68.7242V17.7739H63.7248V18.9771H65.4845V21.5701H66.9645ZM69.2213 21.5644V17.7682H70.7014V21.5644H69.2213ZM78.7994 17.7682L80.4659 19.7793V17.7682H81.9488V21.5644H80.2823L78.243 19.2455V21.5644H76.7629V17.7682H78.7994ZM82.0618 21.5701H83.7282L84.0277 20.9204H85.9284L86.2284 21.5701H87.8944L85.8584 17.7739H84.0983L82.0618 21.5701ZM88.0104 21.5644V17.7682H89.4904V20.3611H92.4534V21.5644H88.0104ZM33.1623 40.498C32.4817 40.498 31.6466 40.5983 31.6466 41.045C31.6466 41.2914 32.3272 41.3248 33.2082 41.3665L33.2179 41.367C34.7831 41.4463 36.9744 41.5573 36.9703 42.9615C36.9703 44.5649 35.1331 44.9449 33.1623 44.9449C31.1957 44.9407 29.5631 44.7027 29.3543 42.9615H31.6466C31.8971 43.3958 32.4775 43.5085 33.1623 43.5085C33.8429 43.5085 34.678 43.3958 34.678 42.9615C34.678 42.7152 33.9974 42.6776 33.1164 42.6359L33.1066 42.6354C31.5414 42.5561 29.3501 42.4451 29.3543 41.045C29.3543 39.4417 31.1915 39.0575 33.1623 39.0575C35.1289 39.07 36.7615 39.2913 36.9703 41.045H34.678C34.4274 40.6024 33.8471 40.498 33.1623 40.498ZM41.8263 40.9824V44.8154H39.6384V40.9824H37.0371V39.2037H44.4276V40.9824H41.8263ZM42.9745 44.8154H45.438L45.8806 43.8551H48.6907L49.1333 44.8154H51.5968L48.5863 39.2037H45.985L42.9745 44.8154ZM54.7785 39.1953L57.242 42.1682V39.1953H59.4341V44.8071H56.9706L53.9559 41.3791V44.8071H51.768V39.1953H54.7785ZM60.7117 39.2037V44.8154H65.7056C67.2463 44.8363 68.3904 43.5336 68.3778 42.0095C68.3904 40.4772 67.2463 39.1828 65.7056 39.2037H60.7117ZM70.4071 44.8154H67.9436L70.9541 39.2037H73.5554L76.5658 44.8154H74.1023L73.6597 43.8551H70.8497L70.4071 44.8154ZM76.737 39.1995V44.8113H78.925V43.4417H80.8791L81.9354 44.8113H84.2653L83.0419 43.2371C83.4094 43.0659 83.7058 42.8071 83.9271 42.4688C84.1526 42.1265 84.2653 41.7423 84.2653 41.3206C84.282 40.1598 83.3008 39.187 82.1442 39.1995H76.737ZM84.9459 44.8154V39.2037H89.9394C91.4804 39.1828 92.6244 40.4772 92.6124 42.0095C92.6244 43.5336 91.4804 44.8363 89.9394 44.8154H84.9459ZM45.9038 36.2772H41.5489V32.1626L39.7439 36.2772H36.0504L34.2739 32.1837V36.2772H29.9054V24.6741H35.4183L37.9211 30.4527L40.5466 24.6741H45.9038V36.2772ZM60.11 36.2772H47.9336V24.6741H60.0145V28.2373H52.425V28.7282H59.7961V32.2231H52.425V32.7276H60.11V36.2772ZM75.577 36.2772H71.7934L71.7299 35.5883C70.7814 36.127 69.4974 36.441 67.8439 36.441C65.4917 36.441 63.4333 35.7375 62.2516 34.2082C61.5486 33.3061 61.1483 31.9874 61.1483 30.4961C61.1483 29.1374 61.4959 27.8885 62.2789 26.8797L62.2814 26.8764L62.284 26.8733C63.4734 25.3977 65.5752 24.483 68.5674 24.483C71.9873 24.483 74.167 25.534 75.1218 27.4746L75.1226 27.4761L75.1233 27.4776C75.3453 27.9374 75.4654 28.5449 75.481 28.9359L75.4853 29.0421H75.577V36.2772ZM81.7282 34.2979L80.7318 36.2772H75.8552L82.0484 24.6741H86.9974L92.8504 36.2772H87.9034L86.9624 34.2979H81.7282ZM29.2709 50.5672H92.8054V49.008H29.2709V50.5672Z" fill="#52525B"/>
<path fill-rule="evenodd" clip-rule="evenodd" d="M32 2H115.726C131.742 2 144.726 14.9837 144.726 31C144.726 47.0163 131.742 60 115.726 60H32C15.9837 60 3 47.0163 3 31C3 14.9837 15.9837 2 32 2ZM32 4.8065C17.5337 4.8065 5.8065 16.5337 5.8065 31C5.8065 45.4663 17.5337 57.1936 32 57.1936H115.726C130.192 57.1936 141.919 45.4663 141.919 31C141.919 16.5337 130.192 4.8065 115.726 4.8065H32Z" fill="#52525B"/>
</svg>
