<svg width="120" height="31" viewBox="0 0 120 31" fill="none" xmlns="http://www.w3.org/2000/svg">
<path d="M3.44141 28.325H29.0914V2.675H3.44141V28.325ZM24.1544 13.032H18.7344V7.612H24.1544V13.032ZM8.37741 7.612H13.8004V17.968H24.1544V23.388H8.37741V7.612ZM45.7944 2.675C43.2578 2.675 40.7782 3.42718 38.6692 4.83641C36.5601 6.24564 34.9163 8.24863 33.9456 10.5921C32.9749 12.9356 32.721 15.5142 33.2158 18.002C33.7107 20.4898 34.9321 22.775 36.7257 24.5686C38.5193 26.3623 40.8045 27.5837 43.2923 28.0786C45.7802 28.5734 48.3588 28.3195 50.7023 27.3488C53.0458 26.3781 55.0487 24.7343 56.458 22.6252C57.8672 20.5161 58.6194 18.0365 58.6194 15.5C58.6154 12.0998 57.2629 8.84004 54.8586 6.43575C52.4543 4.03145 49.1946 2.67897 45.7944 2.675ZM45.7944 23.388C44.2343 23.388 42.7092 22.9254 41.412 22.0586C40.1149 21.1919 39.1038 19.96 38.5068 18.5186C37.9098 17.0773 37.7536 15.4913 38.0579 13.9611C38.3623 12.431 39.1136 11.0255 40.2167 9.92234C41.3199 8.81919 42.7254 8.06793 44.2555 7.76357C45.7856 7.45921 47.3716 7.61542 48.813 8.21244C50.2543 8.80946 51.4863 9.82049 52.353 11.1177C53.2198 12.4148 53.6824 13.9399 53.6824 15.5C53.6792 17.5911 52.8471 19.5956 51.3685 21.0742C49.8899 22.5528 47.8854 23.3848 45.7944 23.388ZM104.513 2.675C101.976 2.67481 99.4971 3.42681 97.3879 4.83592C95.2787 6.24503 93.6348 8.24795 92.6639 10.5914C91.6931 12.9348 91.4389 15.5136 91.9337 18.0014C92.4284 20.4893 93.6498 22.7746 95.4434 24.5683C97.2369 26.362 99.5221 27.5836 102.01 28.0785C104.497 28.5734 107.076 28.3195 109.42 27.3489C111.763 26.3782 113.766 24.7344 115.175 22.6253C116.585 20.5162 117.337 18.0366 117.337 15.5C117.333 12.1 115.981 8.84036 113.577 6.4361C111.173 4.03183 107.913 2.67924 104.513 2.675ZM104.513 23.388C102.953 23.3882 101.428 22.9257 100.131 22.0591C98.8335 21.1925 97.8223 19.9606 97.2251 18.5193C96.6279 17.078 96.4716 15.4919 96.7758 13.9617C97.0801 12.4316 97.8313 11.026 98.9344 9.9227C100.038 8.81944 101.443 8.06808 102.973 7.76364C104.503 7.4592 106.089 7.61535 107.53 8.21235C108.972 8.80934 110.204 9.82036 111.071 11.1176C111.937 12.4148 112.4 13.9399 112.4 15.5C112.397 17.5909 111.565 19.5952 110.086 21.0738C108.608 22.5524 106.604 23.3846 104.513 23.388ZM75.1534 2.675C72.6168 2.675 70.1372 3.42718 68.0282 4.83641C65.9191 6.24564 64.2753 8.24863 63.3046 10.5921C62.3339 12.9356 62.08 15.5142 62.5748 18.002C63.0697 20.4898 64.2911 22.775 66.0847 24.5686C67.8783 26.3623 70.1635 27.5837 72.6513 28.0786C75.1391 28.5734 77.7178 28.3195 80.0613 27.3488C82.4048 26.3781 84.4077 24.7343 85.817 22.6252C87.2262 20.5161 87.9784 18.0365 87.9784 15.5C87.9744 12.0998 86.6219 8.84004 84.2176 6.43575C81.8133 4.03145 78.5536 2.67897 75.1534 2.675ZM75.1534 23.388C73.6998 23.3887 72.2744 22.9878 71.0343 22.2295C69.7943 21.4712 68.7878 20.3851 68.1261 19.0909C67.4645 17.7967 67.1732 16.3448 67.2846 14.8956C67.396 13.4463 67.9056 12.056 68.7573 10.8781C69.609 9.70026 70.7696 8.78061 72.1109 8.22071C73.4523 7.6608 74.9223 7.48242 76.3586 7.70524C77.795 7.92807 79.1418 8.54343 80.2505 9.48342C81.3592 10.4234 82.1866 11.6515 82.6414 13.032H75.1534V17.968H82.6414C82.1205 19.5433 81.1169 20.9147 79.7728 21.8875C78.4288 22.8604 76.8126 23.3853 75.1534 23.388Z" fill="#394149"/>
</svg>
