<svg width="74" height="49" viewBox="0 0 74 49" fill="none" xmlns="http://www.w3.org/2000/svg">
<path d="M47.3671 24C47.3671 36.4264 37.2935 46.5 24.8671 46.5C12.4408 46.5 2.36719 36.4264 2.36719 24C2.36719 11.5736 12.4408 1.5 24.8671 1.5C37.2935 1.5 47.3671 11.5736 47.3671 24Z" fill="#52525B"/>
<path d="M71.6321 24C71.6321 36.4264 61.6571 46.5 49.3526 46.5C37.0481 46.5 27.0732 36.4264 27.0732 24C27.0732 11.5736 37.0481 1.5 49.3526 1.5C61.6571 1.5 71.6321 11.5736 71.6321 24Z" fill="#37373D"/>
<path d="M37.1702 42.8416C43.3106 38.8239 47.3673 31.8858 47.3673 24C47.3673 16.1144 43.3106 9.17614 37.1702 5.15854C31.0901 9.17614 27.0732 16.1144 27.0732 24C27.0732 31.8858 31.0901 38.8239 37.1702 42.8416Z" fill="#1B1B1E"/>
</svg>
