<svg width="100" height="52" viewBox="0 0 100 52" fill="none" xmlns="http://www.w3.org/2000/svg">
<path d="M2.58496 30.0165H5.41788V43.9072H2.58496V30.0165Z" fill="#394149"/>
<path d="M7.06126 39.1479C7.05939 38.1502 7.35354 37.1743 7.90649 36.3438C8.45944 35.5133 9.24633 34.8655 10.1676 34.4824C11.0888 34.0993 12.103 33.9981 13.0818 34.1916C14.0606 34.3851 14.96 34.8646 15.6661 35.5695C16.3723 36.2743 16.8535 37.1728 17.0488 38.1512C17.2442 39.1296 17.1449 40.144 16.7635 41.066C16.3821 41.9879 15.7358 42.776 14.9063 43.3305C14.0769 43.8851 13.1016 44.181 12.1039 44.181C11.4403 44.1886 10.782 44.0637 10.1674 43.8135C9.55281 43.5634 8.99432 43.1931 8.52468 42.7243C8.05504 42.2556 7.68369 41.6978 7.4324 41.0836C7.18111 40.4695 7.05493 39.8114 7.06126 39.1479ZM14.2946 39.1479C14.2835 38.7172 14.1456 38.2993 13.8982 37.9466C13.6508 37.5938 13.3049 37.3219 12.9037 37.1647C12.5025 37.0075 12.0639 36.9722 11.6428 37.063C11.2216 37.1538 10.8366 37.3668 10.5358 37.6753C10.2351 37.9838 10.032 38.3742 9.95193 38.7976C9.87188 39.2209 9.91846 39.6585 10.0858 40.0555C10.2532 40.4525 10.5339 40.7914 10.8928 41.0297C11.2518 41.268 11.673 41.3952 12.1039 41.3953C12.3986 41.4036 12.6919 41.3507 12.9652 41.2399C13.2385 41.1291 13.4859 40.9629 13.6918 40.7517C13.8976 40.5405 14.0575 40.289 14.1612 40.013C14.265 39.7369 14.3104 39.4424 14.2946 39.1479Z" fill="#394149"/>
<path d="M28.5345 34.3886V43.435C28.5345 46.6362 26.0321 47.9866 23.5014 47.9866C22.6115 48.0528 21.7205 47.8728 20.926 47.4664C20.1315 47.06 19.4642 46.4428 18.9971 45.6825L21.4334 44.2755C21.6267 44.6651 21.9326 44.9878 22.3114 45.2016C22.6902 45.4154 23.1245 45.5106 23.5581 45.4747C23.8433 45.5223 24.1357 45.5037 24.4127 45.4203C24.6897 45.337 24.9438 45.1912 25.1555 44.9941C25.3671 44.797 25.5307 44.5539 25.6336 44.2836C25.7365 44.0133 25.7759 43.723 25.7488 43.435V42.5568C25.4158 42.9666 24.9908 43.2921 24.5085 43.507C24.0262 43.7219 23.5 43.8202 22.9726 43.7939C21.6903 43.7939 20.4606 43.2845 19.5538 42.3778C18.6471 41.4711 18.1377 40.2413 18.1377 38.959C18.1377 37.6767 18.6471 36.447 19.5538 35.5403C20.4606 34.6336 21.6903 34.1242 22.9726 34.1242C23.4997 34.1001 24.0251 34.1994 24.5071 34.4141C24.9891 34.6289 25.4143 34.9532 25.7488 35.3612V34.4169L28.5345 34.3886ZM25.7488 38.959C25.7677 38.4998 25.6487 38.0454 25.4073 37.6542C25.1658 37.2631 24.8129 36.9531 24.3939 36.7642C23.9749 36.5752 23.5089 36.5159 23.0559 36.5939C22.6029 36.6718 22.1836 36.8835 21.8519 37.2016C21.5201 37.5198 21.2911 37.9299 21.1943 38.3792C21.0974 38.8285 21.1372 39.2966 21.3085 39.7231C21.4798 40.1497 21.7747 40.5152 22.1554 40.7728C22.5361 41.0305 22.9851 41.1683 23.4447 41.1687C23.7448 41.1899 24.0459 41.1481 24.3287 41.0458C24.6116 40.9435 24.8699 40.7832 25.087 40.575C25.304 40.3668 25.4751 40.1154 25.5891 39.8371C25.7031 39.5588 25.7575 39.2597 25.7488 38.959Z" fill="#394149"/>
<path d="M30.1682 39.1479C30.1663 38.1502 30.4605 37.1743 31.0134 36.3438C31.5664 35.5133 32.3533 34.8655 33.2745 34.4824C34.1957 34.0993 35.2099 33.9981 36.1887 34.1916C37.1675 34.3851 38.0669 34.8646 38.7731 35.5695C39.4792 36.2743 39.9604 37.1728 40.1558 38.1512C40.3511 39.1296 40.2518 40.144 39.8704 41.066C39.489 41.9879 38.8427 42.776 38.0133 43.3305C37.1838 43.8851 36.2085 44.181 35.2108 44.181C34.5473 44.1886 33.8889 44.0637 33.2743 43.8135C32.6597 43.5634 32.1012 43.1931 31.6316 42.7243C31.162 42.2556 30.7906 41.6978 30.5393 41.0836C30.288 40.4695 30.1618 39.8114 30.1682 39.1479ZM37.4016 39.1479C37.3904 38.7172 37.2525 38.2993 37.0051 37.9466C36.7577 37.5938 36.4118 37.3219 36.0106 37.1647C35.6095 37.0075 35.1709 36.9722 34.7497 37.063C34.3285 37.1538 33.9435 37.3668 33.6427 37.6753C33.342 37.9838 33.1389 38.3742 33.0588 38.7976C32.9788 39.2209 33.0254 39.6585 33.1927 40.0555C33.3601 40.4525 33.6408 40.7914 33.9997 41.0297C34.3587 41.268 34.7799 41.3952 35.2108 41.3953C35.504 41.4009 35.7952 41.3461 36.0663 41.2341C36.3373 41.1221 36.5824 40.9555 36.7862 40.7446C36.99 40.5338 37.1481 40.2831 37.2508 40.0084C37.3534 39.7337 37.3983 39.4407 37.3827 39.1479H37.4016Z" fill="#394149"/>
<path d="M41.5659 31.839C41.5659 31.4991 41.6667 31.1668 41.8555 30.8842C42.0444 30.6016 42.3128 30.3813 42.6268 30.2512C42.9409 30.1211 43.2864 30.0871 43.6198 30.1534C43.9532 30.2197 44.2594 30.3834 44.4998 30.6237C44.7402 30.8641 44.9038 31.1703 44.9701 31.5037C45.0365 31.8371 45.0024 32.1827 44.8724 32.4967C44.7423 32.8107 44.522 33.0792 44.2394 33.268C43.9567 33.4568 43.6245 33.5576 43.2845 33.5576C42.8295 33.5552 42.3938 33.3733 42.072 33.0515C41.7502 32.7298 41.5684 32.2941 41.5659 31.839ZM41.8586 34.3886H44.6915V43.9072H41.8586V34.3886Z" fill="#394149"/>
<path d="M57.0429 39.1479C57.0772 39.7771 56.9868 40.4069 56.7768 41.001C56.5667 41.5951 56.2413 42.1418 55.8191 42.6096C55.3969 43.0774 54.8864 43.4571 54.3169 43.7268C53.7474 43.9965 53.1302 44.1509 52.5008 44.1811C51.9724 44.2064 51.4448 44.1156 50.9554 43.9149C50.4659 43.7142 50.0264 43.4086 49.6679 43.0196V47.7411H46.835V34.3886H49.6679V35.2857C50.0264 34.8967 50.4659 34.5911 50.9554 34.3904C51.4448 34.1897 51.9724 34.0989 52.5008 34.1242C53.1294 34.1544 53.7458 34.3085 54.3146 34.5776C54.8835 34.8468 55.3936 35.2256 55.8156 35.6924C56.2377 36.1592 56.5633 36.7047 56.7739 37.2977C56.9846 37.8907 57.076 38.5195 57.0429 39.1479ZM54.21 39.1479C54.1988 38.7047 54.0578 38.2745 53.8045 37.9106C53.5512 37.5468 53.1968 37.2651 52.7851 37.1007C52.3734 36.9362 51.9224 36.8961 51.4882 36.9854C51.0539 37.0746 50.6553 37.2893 50.3418 37.6028C50.0283 37.9163 49.8137 38.3148 49.7244 38.7491C49.6352 39.1834 49.6753 39.6343 49.8397 40.046C50.0042 40.4577 50.2858 40.8122 50.6497 41.0654C51.0136 41.3187 51.4438 41.4597 51.887 41.4709C52.1963 41.4906 52.5062 41.4438 52.796 41.3338C53.0857 41.2237 53.3485 41.0529 53.5668 40.8329C53.785 40.6128 53.9537 40.3486 54.0614 40.058C54.169 39.7674 54.2133 39.4571 54.1911 39.1479H54.21Z" fill="#394149"/>
<path d="M65.863 41.0554C65.863 43.2462 63.9744 44.181 61.8969 44.181C61.067 44.2545 60.2341 44.0779 59.5054 43.674C58.7768 43.2701 58.1856 42.6574 57.8081 41.9147L60.2822 40.5077C60.3826 40.8512 60.5976 41.15 60.8913 41.3544C61.1851 41.5588 61.5399 41.6566 61.8969 41.6314C62.5863 41.6314 62.9262 41.4142 62.9262 41.0365C62.9262 39.9883 58.2047 40.5455 58.2047 37.2593C58.2047 35.1818 59.9611 34.1336 61.9819 34.1336C62.7276 34.111 63.4658 34.2881 64.12 34.6468C64.7742 35.0054 65.3205 35.5325 65.7025 36.1733L63.219 37.4765C63.1093 37.2271 62.9295 37.0149 62.7015 36.8657C62.4735 36.7165 62.2072 36.6367 61.9347 36.636C61.4437 36.636 61.1415 36.8249 61.1415 37.1743C61.1793 38.2602 65.863 37.5331 65.863 41.0554Z" fill="#394149"/>
<path d="M76.2879 34.3886V43.9072H73.4549V43.0196C73.1254 43.414 72.7072 43.7248 72.2345 43.9267C71.7619 44.1286 71.2481 44.2157 70.7353 44.1811C68.8467 44.1811 67.1753 42.8118 67.1753 40.2339V34.3886H70.0082V39.8184C69.9833 40.0498 70.0103 40.2838 70.0871 40.5035C70.1639 40.7232 70.2886 40.923 70.4523 41.0885C70.6159 41.254 70.8144 41.3809 71.0332 41.4601C71.252 41.5394 71.4858 41.5688 71.7174 41.5465C72.7562 41.5465 73.4833 40.9421 73.4833 39.5918V34.3886H76.2879Z" fill="#394149"/>
<path d="M92.6625 38.0713V43.9071H89.8295V38.3169C89.8295 37.3726 89.3668 36.7493 88.4603 36.7493C87.5538 36.7493 86.9683 37.4198 86.9683 38.5435V43.9071H84.1354V38.3169C84.1354 37.3726 83.6821 36.7493 82.7661 36.7493C81.8502 36.7493 81.2836 37.4198 81.2836 38.5435V43.9071H78.4507V34.3886H81.2836V35.2668C81.5797 34.8789 81.968 34.5712 82.4133 34.3717C82.8586 34.1721 83.3467 34.087 83.8332 34.1242C84.3218 34.1004 84.8083 34.2037 85.2451 34.4237C85.682 34.6438 86.0544 34.9733 86.3262 35.3801C86.6422 34.9548 87.0609 34.6165 87.5431 34.3969C88.0253 34.1773 88.5553 34.0834 89.0835 34.1242C91.2366 34.1242 92.6625 35.6917 92.6625 38.0713Z" fill="#394149"/>
<path d="M95.0797 34.332C96.2479 34.332 97.1949 33.3849 97.1949 32.2167C97.1949 31.0485 96.2479 30.1015 95.0797 30.1015C93.9115 30.1015 92.9644 31.0485 92.9644 32.2167C92.9644 33.3849 93.9115 34.332 95.0797 34.332Z" fill="#394149"/>
<path d="M34.6441 22.8115C40.1149 22.8115 44.5498 18.3765 44.5498 12.9057C44.5498 7.43493 40.1149 2.99997 34.6441 2.99997C29.1733 2.99997 24.7383 7.43493 24.7383 12.9057C24.7383 18.3765 29.1733 22.8115 34.6441 22.8115Z" fill="#394149"/>
<path d="M56.7881 22.8115C62.2589 22.8115 66.6938 18.3765 66.6938 12.9057C66.6938 7.43493 62.2589 2.99997 56.7881 2.99997C51.3173 2.99997 46.8823 7.43493 46.8823 12.9057C46.8823 18.3765 51.3173 22.8115 56.7881 22.8115Z" fill="#394149"/>
<path d="M22.406 2.99997H2.604V22.802H22.406V2.99997Z" fill="#394149"/>
</svg>
