<svg width="161" height="47" viewBox="0 0 161 47" fill="none" xmlns="http://www.w3.org/2000/svg">
<path fill-rule="evenodd" clip-rule="evenodd" d="M27.1051 4.22414C25.6113 2.73101 23.19 2.7315 21.6969 4.22525L9.23553 16.6917L9.22491 16.6886L9.18553 16.6928C9.20175 16.7006 9.21767 16.7083 9.23327 16.7161C7.04729 16.9451 6.11981 17.602 6.10931 18.4456C6.11301 18.7594 6.24176 19.0983 6.47825 19.4501L6.46688 19.4615C8.45416 22.4588 18.2991 26.4127 25.2641 23.7338C20.0441 26.3438 7.75073 26.8611 4.13998 21.7935C3.35584 22.6418 3.02776 23.7566 3.15131 24.8279C4.10517 30.0853 14.7694 31.5196 25.4337 23.9023L27.7414 26.21C24.8698 29.1602 20.6281 46.2967 26.9308 43.6803C27.0803 43.5788 27.2072 43.488 27.3798 43.3574L27.6607 43.0922C27.6445 43.0962 27.6284 43.1 27.6124 43.1038L44.4924 27.1681C46.0597 25.6884 46.0952 23.2065 44.5707 21.6826L27.1051 4.22414ZM25.2669 9.41743L25.8438 7.10974L26.4207 9.41743L28.1515 9.99436L26.4207 10.5713L25.8438 12.879L25.2669 10.5713L23.5361 9.99436L25.2669 9.41743ZM18.126 16.9508L18.5106 15.4123L18.8952 16.9508L20.0491 17.3354L18.8952 17.72L18.5106 19.2585L18.126 17.72L16.9722 17.3354L18.126 16.9508ZM31.5216 29.9277L31.137 31.4661L29.9832 31.8508L31.137 32.2354L31.5216 33.7738L31.9062 32.2354L33.0601 31.8508L31.9062 31.4661L31.5216 29.9277Z" fill="#52525B"/>
<path d="M55.3975 12.7755H51.8154V28.9387H61.7318V25.7716H55.3975V12.7755Z" fill="#52525B"/>
<path d="M62.0742 23.4563C62.0742 26.9074 64.3895 29.2008 67.8842 29.2008C71.3572 29.2008 73.6724 26.9074 73.6724 23.4563C73.6724 20.0052 71.3572 17.69 67.8842 17.69C64.3895 17.69 62.0742 20.0052 62.0742 23.4563ZM65.4598 23.4345C65.4598 21.7963 66.4208 20.7042 67.8842 20.7042C69.3258 20.7042 70.2869 21.7963 70.2869 23.4345C70.2869 25.0945 69.3258 26.1866 67.8842 26.1866C66.4208 26.1866 65.4598 25.0945 65.4598 23.4345Z" fill="#52525B"/>
<path d="M74.2135 23.2816C74.2135 26.5797 76.3541 28.8076 79.3901 28.8076C80.8536 28.8076 82.1204 28.2834 82.7538 27.4316V28.9387C82.7538 30.4458 81.8146 31.4506 80.1546 31.4506C78.6693 31.4506 77.6428 30.7516 77.5772 29.5066H74.1699C74.4756 32.499 76.7909 34.5085 79.958 34.5085C83.6931 34.5085 86.052 32.084 86.052 28.2397V18.0176H83.0159L82.8412 19.1315C82.2296 18.236 80.9409 17.6463 79.4557 17.6463C76.3978 17.6463 74.2135 19.9397 74.2135 23.2816ZM77.6209 23.1942C77.6209 21.6216 78.6694 20.5731 80.0017 20.5731C81.5525 20.5731 82.6883 21.5997 82.6883 23.1942C82.6883 24.7887 81.5744 25.8808 80.0236 25.8808C78.6912 25.8808 77.6209 24.7887 77.6209 23.1942Z" fill="#52525B"/>
<path d="M87.0322 23.4563C87.0322 26.9074 89.3474 29.2008 92.8422 29.2008C96.3151 29.2008 98.6304 26.9074 98.6304 23.4563C98.6304 20.0052 96.3151 17.69 92.8422 17.69C89.3474 17.69 87.0322 20.0052 87.0322 23.4563ZM90.4177 23.4345C90.4177 21.7963 91.3788 20.7042 92.8422 20.7042C94.2838 20.7042 95.2448 21.7963 95.2448 23.4345C95.2448 25.0945 94.2838 26.1866 92.8422 26.1866C91.3788 26.1866 90.4177 25.0945 90.4177 23.4345Z" fill="#52525B"/>
<path d="M101.531 16.3139C102.579 16.3139 103.431 15.4621 103.431 14.3918C103.431 13.3215 102.579 12.4915 101.531 12.4915C100.46 12.4915 99.6084 13.3215 99.6084 14.3918C99.6084 15.4621 100.46 16.3139 101.531 16.3139ZM99.8268 28.9387H103.213V18.0176H99.8268V28.9387Z" fill="#52525B"/>
<path d="M105.183 34.1808H108.503V27.8466C109.137 28.6766 110.578 29.2445 112.086 29.2445C115.34 29.2445 117.306 26.7545 117.218 23.3034C117.131 19.7868 115.1 17.6681 112.064 17.6681C110.513 17.6681 109.05 18.3452 108.438 19.35L108.263 18.0176H105.183V34.1808ZM108.569 23.4781C108.569 21.84 109.661 20.7479 111.234 20.7479C112.828 20.7479 113.833 21.8618 113.833 23.4781C113.833 25.0945 112.828 26.2084 111.234 26.2084C109.661 26.2084 108.569 25.1163 108.569 23.4781Z" fill="#52525B"/>
<path d="M117.577 25.4876C117.664 27.6937 119.412 29.2226 122.164 29.2226C124.807 29.2226 126.642 27.8247 126.642 25.575C126.642 23.9587 125.68 22.8884 123.889 22.4516L121.945 21.971C121.246 21.7963 120.81 21.6216 120.81 21.0537C120.81 20.4858 121.268 20.1144 121.945 20.1144C122.71 20.1144 123.212 20.6168 123.19 21.3595H126.227C126.139 19.0879 124.414 17.6681 122.011 17.6681C119.586 17.6681 117.774 19.1097 117.774 21.2939C117.774 22.7574 118.582 23.9587 120.744 24.5266L122.666 25.0289C123.234 25.1818 123.474 25.4439 123.474 25.8153C123.474 26.3613 122.972 26.7108 122.12 26.7108C121.137 26.7108 120.613 26.2521 120.613 25.4876H117.577Z" fill="#52525B"/>
<path d="M131.79 29.2226C133.123 29.2226 134.455 28.6111 135.132 27.7155L135.351 28.9387H138.518V18.0176H135.154V23.6966C135.154 25.3347 134.673 26.2303 133.123 26.2303C131.921 26.2303 131.135 25.6842 131.135 23.6529V18.0176H127.771V24.876C127.771 27.4753 129.213 29.2226 131.79 29.2226Z" fill="#52525B"/>
<path d="M143.852 28.9387V22.9758C143.852 21.141 144.835 20.6168 145.796 20.6168C146.866 20.6168 147.565 21.2721 147.565 22.6263V28.9387H150.885V22.9758C150.885 21.1192 151.846 20.595 152.807 20.595C153.877 20.595 154.598 21.2502 154.598 22.6263V28.9387H157.875V21.7963C157.875 19.3063 156.564 17.6463 153.746 17.6463C152.174 17.6463 150.885 18.4108 150.317 19.5902C149.662 18.4108 148.526 17.6463 146.713 17.6463C145.512 17.6463 144.398 18.1923 143.743 19.066L143.612 18.0176H140.466V28.9387H143.852Z" fill="#52525B"/>
<path fill-rule="evenodd" clip-rule="evenodd" d="M45.7922 5.75128C42.1835 5.75128 38.7612 7.35419 36.4509 10.1265L28.2319 19.9894L32.9779 12.8703L25.0999 16.2466C24.0994 16.6754 23.8484 17.9789 24.618 18.7486L27.1532 21.2837L25.8588 22.837L28.7065 25.6846L30.2597 24.3902L32.7949 26.9254C33.5645 27.695 34.8681 27.444 35.2968 26.4436L38.6731 18.5656L31.5541 23.3116L41.417 15.0925C44.1893 12.7823 45.7922 9.36 45.7922 5.75128ZM37.9613 13.5824C38.7476 14.3687 40.0225 14.3687 40.8089 13.5824C41.5952 12.796 41.5952 11.5211 40.8089 10.7348C40.0225 9.94841 38.7476 9.94841 37.9613 10.7348C37.1749 11.5211 37.1749 12.796 37.9613 13.5824Z" fill="#1B1B1E"/>
<path opacity="0.6" d="M4.04785 21.6609C5.93331 28.1207 17.3965 27.7839 25.2613 23.7348C19.9949 26.3664 7.53687 26.869 4.04785 21.6609Z" fill="#424242"/>
<path opacity="0.6" d="M26.9301 43.6803C21.6193 45.8849 23.7954 34.0645 26.3298 28.5245C24.4824 33.4487 22.9053 44.3038 27.66 43.0922L27.3791 43.3574C27.2065 43.488 27.0796 43.5788 26.9301 43.6803Z" fill="#424242"/>
</svg>
