<svg width="37" height="36" viewBox="0 0 37 36" fill="none" xmlns="http://www.w3.org/2000/svg">
<g clip-path="url(#clip0_15062_39125)">
<path d="M32.375 0H22.625C21.1775 0 20 1.1775 20 2.625V13.875C20 15.3225 21.1775 16.5 22.625 16.5H32.375C33.8225 16.5 35 15.3225 35 13.875V2.625C35 1.1775 33.8225 0 32.375 0ZM30.128 9.087L26.378 12.462C25.658 13.1085 24.5 12.6015 24.5 11.625V4.875C24.5 3.903 25.6565 3.3915 26.378 4.038L30.128 7.413C30.6245 7.8615 30.6245 8.6385 30.128 9.087Z" fill="#FFA319"/>
<path d="M29 19.5H22.625C19.52 19.5 17 16.98 17 13.875V2.625C17 1.68 17.24 0.78 17.66 0H6.5C4.025 0 2 2.025 2 4.5V26.25C2 27.72 4.0085 30 6.5 30H11V34.875C11 35.853 12.167 36.3585 12.875 35.715L15.5 33.375L18.125 35.715C18.806 36.3465 20 35.8785 20 34.875V30H27.5C28.325 30 29 29.325 29 28.5C29 26.8605 29 21.294 29 19.5ZM11 27H6.5C5.675 27 5 26.325 5 25.5C5 24.675 5.675 24 6.5 24H11V27ZM26 27H20V24H26V27Z" fill="url(#paint0_linear_15062_39125)"/>
</g>
<defs>
<linearGradient id="paint0_linear_15062_39125" x1="15.5" y1="-49.4396" x2="15.5" y2="36.0024" gradientUnits="userSpaceOnUse">
<stop stop-color="white"/>
<stop offset="1" stop-color="white" stop-opacity="0"/>
</linearGradient>
<clipPath id="clip0_15062_39125">
<rect width="36" height="36" fill="white" transform="translate(0.5)"/>
</clipPath>
</defs>
</svg>
