<svg width="37" height="36" viewBox="0 0 37 36" fill="none" xmlns="http://www.w3.org/2000/svg">
<path d="M18.5 11.9531C21.8008 11.9531 24.4766 9.27733 24.4766 5.97656C24.4766 2.6758 21.8008 0 18.5 0C15.1992 0 12.5234 2.6758 12.5234 5.97656C12.5234 9.27733 15.1992 11.9531 18.5 11.9531Z" fill="#FFA319"/>
<path d="M22.892 12.7628C21.6266 13.5846 20.1184 14.0625 18.5004 14.0625C16.8824 14.0625 15.3742 13.5846 14.1088 12.7628C12.7099 13.2974 11.4129 14.0861 10.2852 15.0983L18.5004 18.1791L26.7156 15.0983C25.5879 14.0861 24.2909 13.2973 22.892 12.7628Z" fill="#FFA319"/>
<path d="M31.1562 21.7969H30.4531C29.8707 21.7969 29.3984 22.2691 29.3984 22.8516V25.6641C29.3984 26.2465 29.8707 26.7188 30.4531 26.7188H31.1562C32.5154 26.7188 33.6172 25.617 33.6172 24.2578C33.6172 22.8987 32.5154 21.7969 31.1562 21.7969Z" fill="url(#paint0_linear_15062_39143)"/>
<path d="M6.64925 16.4726C6.36491 16.6697 6.19531 16.9935 6.19531 17.3394V19.6875H6.54688C8.29154 19.6875 9.71094 21.1069 9.71094 22.8516V25.6641C9.71094 27.4088 8.29154 28.8282 6.54688 28.8282H6.19531V31.0504C6.19531 31.4901 6.46805 31.8836 6.87966 32.0379L17.4453 36V20.0363L7.62034 16.3519C7.29641 16.2303 6.93352 16.2754 6.64925 16.4726Z" fill="url(#paint1_linear_15062_39143)"/>
<path d="M27.2891 25.6641V22.8516C27.2891 21.1069 28.7085 19.6875 30.4531 19.6875H30.8047V17.3394C30.8047 16.9935 30.6351 16.6697 30.3507 16.4726C30.0664 16.2754 29.7035 16.2303 29.3797 16.3519L19.5547 20.0363V36L30.1203 32.0379C30.5319 31.8836 30.8047 31.4901 30.8047 31.0504V28.8282H30.4531C28.7085 28.8282 27.2891 27.4088 27.2891 25.6641Z" fill="url(#paint2_linear_15062_39143)"/>
<path d="M7.60156 25.6641V22.8516C7.60156 22.2691 7.12934 21.7969 6.54688 21.7969H5.84375C4.48461 21.7969 3.38281 22.8987 3.38281 24.2578C3.38281 25.617 4.48461 26.7188 5.84375 26.7188H6.54688C7.12934 26.7188 7.60156 26.2465 7.60156 25.6641Z" fill="url(#paint3_linear_15062_39143)"/>
<defs>
<linearGradient id="paint0_linear_15062_39143" x1="31.5078" y1="15.038" x2="31.5078" y2="26.7188" gradientUnits="userSpaceOnUse">
<stop stop-color="white"/>
<stop offset="1" stop-color="white" stop-opacity="0"/>
</linearGradient>
<linearGradient id="paint1_linear_15062_39143" x1="11.8203" y1="-10.7891" x2="11.8203" y2="36" gradientUnits="userSpaceOnUse">
<stop stop-color="white"/>
<stop offset="1" stop-color="white" stop-opacity="0"/>
</linearGradient>
<linearGradient id="paint2_linear_15062_39143" x1="25.1797" y1="-10.7891" x2="25.1797" y2="36" gradientUnits="userSpaceOnUse">
<stop stop-color="white"/>
<stop offset="1" stop-color="white" stop-opacity="0"/>
</linearGradient>
<linearGradient id="paint3_linear_15062_39143" x1="5.49219" y1="15.038" x2="5.49219" y2="26.7188" gradientUnits="userSpaceOnUse">
<stop stop-color="white"/>
<stop offset="1" stop-color="white" stop-opacity="0"/>
</linearGradient>
</defs>
</svg>
