<svg width="507" height="41" viewBox="0 0 507 41" fill="none" xmlns="http://www.w3.org/2000/svg">
<g filter="url(#filter0_b_15062_39216)">
<rect x="0.154785" y="0.0402832" width="506.69" height="40.4139" rx="7.52587" fill="white" fill-opacity="0.2"/>
</g>
<g opacity="0.3" filter="url(#filter1_b_15062_39216)">
<rect x="6.2168" y="0.0402832" width="494.06" height="2.0207" rx="1.01035" fill="white"/>
</g>
<rect x="6.2168" y="0.0402832" width="260.165" height="2.0207" rx="1.01035" fill="#FFA319"/>
<rect width="17.6811" height="17.6811" transform="translate(244.659 11.6594)" fill="white" fill-opacity="0.01"/>
<path fill-rule="evenodd" clip-rule="evenodd" d="M250.991 26.0415C249.935 26.6618 249.079 26.1741 249.079 24.9497V16.0524C249.079 14.8273 249.932 14.3374 250.991 14.9592L259.156 19.7552C259.856 20.167 259.862 20.8308 259.156 21.2455L250.991 26.0415Z" fill="white"/>
<rect width="17.6811" height="17.6811" transform="translate(268.402 11.6594)" fill="white" fill-opacity="0.01"/>
<path fill-rule="evenodd" clip-rule="evenodd" d="M276.484 21.8777L271.863 24.7199C271.172 25.145 270.612 24.8341 270.612 24.0163V16.983C270.612 16.1696 271.17 15.8536 271.863 16.2787L276.484 19.1209V16.983C276.484 16.1696 277.042 15.8536 277.734 16.2787L283.348 19.7309C284.037 20.1552 284.04 20.8426 283.348 21.2684L277.734 24.7199C277.044 25.145 276.484 24.8341 276.484 24.0163V21.8777V21.8777Z" fill="white"/>
<rect width="17.6811" height="17.6811" transform="matrix(-1 0 0 1 238.597 11.6594)" fill="white" fill-opacity="0.01"/>
<path fill-rule="evenodd" clip-rule="evenodd" d="M230.515 21.8777L235.137 24.7199C235.827 25.145 236.387 24.8341 236.387 24.0163V16.983C236.387 16.1696 235.829 15.8536 235.137 16.2787L230.515 19.1209V16.983C230.515 16.1696 229.957 15.8536 229.265 16.2787L223.651 19.7309C222.962 20.1552 222.959 20.8426 223.651 21.2684L229.265 24.7199C229.955 25.145 230.515 24.8341 230.515 24.0163V21.8777V21.8777Z" fill="white"/>
<path d="M22.2637 22.7299C21.6666 22.7299 21.185 22.4966 20.8187 22.03C20.4575 21.5584 20.2769 20.9111 20.2769 20.0883C20.2769 19.2956 20.455 18.6584 20.8112 18.1767C21.1674 17.6901 21.6516 17.4467 22.2637 17.4467C22.8607 17.4467 23.3399 17.68 23.7011 18.1466C24.0674 18.6132 24.2505 19.2605 24.2505 20.0883C24.2505 20.881 24.0724 21.5207 23.7162 22.0074C23.365 22.4891 22.8808 22.7299 22.2637 22.7299ZM22.2637 21.9171C22.6099 21.9171 22.8783 21.7565 23.069 21.4354C23.2646 21.1143 23.3625 20.6653 23.3625 20.0883C23.3625 19.5113 23.2646 19.0623 23.069 18.7412C22.8733 18.4151 22.6049 18.252 22.2637 18.252C21.9225 18.252 21.6541 18.4151 21.4584 18.7412C21.2627 19.0623 21.1649 19.5113 21.1649 20.0883C21.1649 20.6553 21.2627 21.1018 21.4584 21.4279C21.6591 21.754 21.9275 21.9171 22.2637 21.9171ZM26.8683 22.7299C26.2712 22.7299 25.7896 22.4966 25.4233 22.03C25.0621 21.5584 24.8815 20.9111 24.8815 20.0883C24.8815 19.2956 25.0596 18.6584 25.4158 18.1767C25.772 17.6901 26.2562 17.4467 26.8683 17.4467C27.4653 17.4467 27.9445 17.68 28.3057 18.1466C28.672 18.6132 28.8551 19.2605 28.8551 20.0883C28.8551 20.881 28.677 21.5207 28.3208 22.0074C27.9696 22.4891 27.4854 22.7299 26.8683 22.7299ZM26.8683 21.9171C27.2145 21.9171 27.4829 21.7565 27.6736 21.4354C27.8692 21.1143 27.9671 20.6653 27.9671 20.0883C27.9671 19.5113 27.8692 19.0623 27.6736 18.7412C27.4779 18.4151 27.2095 18.252 26.8683 18.252C26.5271 18.252 26.2587 18.4151 26.063 18.7412C25.8673 19.0623 25.7695 19.5113 25.7695 20.0883C25.7695 20.6553 25.8673 21.1018 26.063 21.4279C26.2637 21.754 26.5321 21.9171 26.8683 21.9171ZM30.0806 20.0657C29.92 20.0657 29.7846 20.013 29.6742 19.9077C29.5638 19.7973 29.5086 19.6643 29.5086 19.5088C29.5086 19.3533 29.5638 19.2203 29.6742 19.1099C29.7896 18.9996 29.9251 18.9444 30.0806 18.9444C30.2361 18.9444 30.3691 18.9996 30.4795 19.1099C30.5898 19.2203 30.645 19.3533 30.645 19.5088C30.645 19.6643 30.5898 19.7973 30.4795 19.9077C30.3691 20.013 30.2361 20.0657 30.0806 20.0657ZM30.0806 22.7299C29.92 22.7299 29.7846 22.6772 29.6742 22.5718C29.5638 22.4615 29.5086 22.3285 29.5086 22.173C29.5086 22.0174 29.5638 21.8845 29.6742 21.7741C29.7896 21.6637 29.9251 21.6085 30.0806 21.6085C30.2361 21.6085 30.3691 21.6637 30.4795 21.7741C30.5898 21.8845 30.645 22.0174 30.645 22.173C30.645 22.3285 30.5898 22.4615 30.4795 22.5718C30.3691 22.6772 30.2361 22.7299 30.0806 22.7299ZM33.3508 22.7299C32.7538 22.7299 32.2721 22.4966 31.9059 22.03C31.5446 21.5584 31.364 20.9111 31.364 20.0883C31.364 19.2956 31.5421 18.6584 31.8983 18.1767C32.2546 17.6901 32.7387 17.4467 33.3508 17.4467C33.9479 17.4467 34.427 17.68 34.7883 18.1466C35.1545 18.6132 35.3377 19.2605 35.3377 20.0883C35.3377 20.881 35.1595 21.5207 34.8033 22.0074C34.4521 22.4891 33.9679 22.7299 33.3508 22.7299ZM33.3508 21.9171C33.697 21.9171 33.9654 21.7565 34.1561 21.4354C34.3518 21.1143 34.4496 20.6653 34.4496 20.0883C34.4496 19.5113 34.3518 19.0623 34.1561 18.7412C33.9604 18.4151 33.692 18.252 33.3508 18.252C33.0097 18.252 32.7412 18.4151 32.5456 18.7412C32.3499 19.0623 32.252 19.5113 32.252 20.0883C32.252 20.6553 32.3499 21.1018 32.5456 21.4279C32.7462 21.754 33.0147 21.9171 33.3508 21.9171ZM37.9554 22.7299C37.3584 22.7299 36.8767 22.4966 36.5105 22.03C36.1492 21.5584 35.9686 20.9111 35.9686 20.0883C35.9686 19.2956 36.1467 18.6584 36.5029 18.1767C36.8592 17.6901 37.3433 17.4467 37.9554 17.4467C38.5525 17.4467 39.0316 17.68 39.3929 18.1466C39.7591 18.6132 39.9423 19.2605 39.9423 20.0883C39.9423 20.881 39.7641 21.5207 39.4079 22.0074C39.0567 22.4891 38.5725 22.7299 37.9554 22.7299ZM37.9554 21.9171C38.3016 21.9171 38.57 21.7565 38.7607 21.4354C38.9564 21.1143 39.0542 20.6653 39.0542 20.0883C39.0542 19.5113 38.9564 19.0623 38.7607 18.7412C38.565 18.4151 38.2966 18.252 37.9554 18.252C37.6142 18.252 37.3458 18.4151 37.1502 18.7412C36.9545 19.0623 36.8566 19.5113 36.8566 20.0883C36.8566 20.6553 36.9545 21.1018 37.1502 21.4279C37.3508 21.754 37.6193 21.9171 37.9554 21.9171ZM42.4665 23.5126L41.7967 23.204L44.6791 16.7844L45.3414 17.093L42.4665 23.5126ZM48.4742 22.6697V18.5455L47.541 19.2454L47.127 18.5982L48.6397 17.4994H49.3472V22.6697H48.4742ZM52.0747 19.3508C52.5362 19.3508 52.9226 19.5013 53.2336 19.8023C53.5497 20.1034 53.7078 20.5072 53.7078 21.014C53.7078 21.5257 53.5397 21.9397 53.2035 22.2558C52.8674 22.5718 52.4259 22.7299 51.879 22.7299C51.5228 22.7299 51.1891 22.6571 50.878 22.5116C50.572 22.3661 50.3186 22.1604 50.1179 21.8945L50.7501 21.3903C50.996 21.7465 51.3472 21.9246 51.8037 21.9246C52.1148 21.9246 52.3606 21.8393 52.5413 21.6687C52.7269 21.4931 52.8197 21.2699 52.8197 20.9989C52.8197 20.723 52.7194 20.5047 52.5187 20.3442C52.318 20.1836 52.0847 20.1034 51.8188 20.1034C51.4776 20.1034 51.1966 20.1937 50.9759 20.3743L50.5018 20.2087L50.6523 17.4994H53.4519V18.2971H51.4726L51.4049 19.4637C51.6457 19.3884 51.869 19.3508 52.0747 19.3508ZM54.9304 20.0657C54.7698 20.0657 54.6344 20.013 54.524 19.9077C54.4136 19.7973 54.3584 19.6643 54.3584 19.5088C54.3584 19.3533 54.4136 19.2203 54.524 19.1099C54.6394 18.9996 54.7748 18.9444 54.9304 18.9444C55.0859 18.9444 55.2189 18.9996 55.3292 19.1099C55.4396 19.2203 55.4948 19.3533 55.4948 19.5088C55.4948 19.6643 55.4396 19.7973 55.3292 19.9077C55.2189 20.013 55.0859 20.0657 54.9304 20.0657ZM54.9304 22.7299C54.7698 22.7299 54.6344 22.6772 54.524 22.5718C54.4136 22.4615 54.3584 22.3285 54.3584 22.173C54.3584 22.0174 54.4136 21.8845 54.524 21.7741C54.6394 21.6637 54.7748 21.6085 54.9304 21.6085C55.0859 21.6085 55.2189 21.6637 55.3292 21.7741C55.4396 21.8845 55.4948 22.0174 55.4948 22.173C55.4948 22.3285 55.4396 22.4615 55.3292 22.5718C55.2189 22.6772 55.0859 22.7299 54.9304 22.7299ZM57.4405 21.8719H59.4574V22.6697H56.1385L56.1235 22.0902L57.7867 20.3367C58.0325 20.0808 58.2157 19.8575 58.3361 19.6669C58.4565 19.4712 58.5167 19.2705 58.5167 19.0648C58.5167 18.834 58.4414 18.6433 58.2909 18.4928C58.1454 18.3373 57.9573 18.2595 57.7265 18.2595C57.3 18.2595 56.9714 18.4627 56.7406 18.8691L56.1159 18.4251C56.4621 17.7728 57.019 17.4467 57.7867 17.4467C58.2332 17.4467 58.6145 17.5872 58.9306 17.8682C59.2467 18.1441 59.4047 18.5104 59.4047 18.9669C59.4047 19.263 59.3395 19.5464 59.2091 19.8174C59.0836 20.0883 58.8629 20.3868 58.5468 20.713L57.4405 21.8644V21.8719ZM61.2954 21.8719H63.3124V22.6697H59.9935L59.9784 22.0902L61.6416 20.3367C61.8875 20.0808 62.0706 19.8575 62.191 19.6669C62.3114 19.4712 62.3716 19.2705 62.3716 19.0648C62.3716 18.834 62.2964 18.6433 62.1459 18.4928C62.0004 18.3373 61.8122 18.2595 61.5814 18.2595C61.155 18.2595 60.8263 18.4627 60.5955 18.8691L59.9709 18.4251C60.3171 17.7728 60.874 17.4467 61.6416 17.4467C62.0882 17.4467 62.4695 17.5872 62.7856 17.8682C63.1016 18.1441 63.2597 18.5104 63.2597 18.9669C63.2597 19.263 63.1945 19.5464 63.064 19.8174C62.9386 20.0883 62.7178 20.3868 62.4017 20.713L61.2954 21.8644V21.8719Z" fill="white"/>
<path d="M451.768 12.6537H454.982V13.2332L453.085 17.9293L452.205 17.7638L454.003 13.4514H451.768V12.6537ZM456.745 17.0262H458.762V17.824H455.443L455.428 17.2445L457.091 15.491C457.337 15.2351 457.52 15.0118 457.64 14.8212C457.761 14.6255 457.821 14.4248 457.821 14.2191C457.821 13.9883 457.746 13.7976 457.595 13.6471C457.45 13.4916 457.261 13.4138 457.031 13.4138C456.604 13.4138 456.276 13.617 456.045 14.0234L455.42 13.5794C455.766 12.9271 456.323 12.601 457.091 12.601C457.537 12.601 457.919 12.7415 458.235 13.0225C458.551 13.2984 458.709 13.6647 458.709 14.1212C458.709 14.4173 458.644 14.7007 458.513 14.9717C458.388 15.2426 458.167 15.5411 457.851 15.8672L456.745 17.0187V17.0262ZM461.36 17.8842C460.763 17.8842 460.281 17.6509 459.915 17.1843C459.554 16.7127 459.373 16.0654 459.373 15.2426C459.373 14.4499 459.551 13.8127 459.907 13.331C460.263 12.8444 460.748 12.601 461.36 12.601C461.957 12.601 462.436 12.8343 462.797 13.3009C463.163 13.7675 463.347 14.4148 463.347 15.2426C463.347 16.0353 463.168 16.675 462.812 17.1617C462.461 17.6434 461.977 17.8842 461.36 17.8842ZM461.36 17.0714C461.706 17.0714 461.974 16.9108 462.165 16.5897C462.361 16.2686 462.459 15.8196 462.459 15.2426C462.459 14.6656 462.361 14.2166 462.165 13.8955C461.969 13.5693 461.701 13.4063 461.36 13.4063C461.019 13.4063 460.75 13.5693 460.554 13.8955C460.359 14.2166 460.261 14.6656 460.261 15.2426C460.261 15.8095 460.359 16.2561 460.554 16.5822C460.755 16.9083 461.024 17.0714 461.36 17.0714ZM466.152 14.0987C466.664 14.0987 467.088 14.2793 467.424 14.6405C467.761 14.9968 467.929 15.4508 467.929 16.0027C467.929 16.5646 467.761 17.0187 467.424 17.3649C467.088 17.7111 466.662 17.8842 466.145 17.8842C465.653 17.8842 465.267 17.7136 464.986 17.3724H464.978V19.3141H464.136V14.1513H464.978V14.6029C465.259 14.2667 465.651 14.0987 466.152 14.0987ZM465.249 16.808C465.455 17.0137 465.711 17.1165 466.017 17.1165C466.323 17.1165 466.574 17.0137 466.77 16.808C466.97 16.6023 467.071 16.3364 467.071 16.0102C467.071 15.664 466.968 15.3856 466.762 15.1749C466.561 14.9641 466.311 14.8588 466.009 14.8588C465.698 14.8588 465.443 14.9692 465.242 15.1899C465.041 15.4057 464.941 15.6791 464.941 16.0102C464.941 16.3364 465.044 16.6023 465.249 16.808Z" fill="white"/>
<path d="M477.143 17.824V13.6998L476.21 14.3997L475.796 13.7525L477.309 12.6537H478.016V17.824H477.143ZM482.437 17.824L481.135 15.8522H481.12L479.818 17.824H478.757L480.526 15.1448L478.795 12.4806H479.841L481.128 14.4373H481.135L482.422 12.4806H483.461L481.73 15.1448L483.506 17.824H482.437Z" fill="white"/>
<rect x="495.866" y="14.8833" width="2.25776" height="1.12888" rx="0.376294" fill="white"/>
<path d="M490.975 12.7709C490.975 12.2488 491.395 11.8259 491.913 11.8259H498.503C499.021 11.8259 499.441 12.2502 499.441 12.7709V16.5254C499.441 17.0475 499.021 17.4703 498.503 17.4703H491.913C491.663 17.4692 491.424 17.3691 491.248 17.1919C491.072 17.0148 490.974 16.775 490.975 16.5254V12.7709ZM491.915 16.5296H498.5V12.7667H491.915V16.5296Z" fill="white"/>
<path fill-rule="evenodd" clip-rule="evenodd" d="M494.267 17.9407H496.149V19.3518H494.267V17.9407ZM493.797 19.587C493.797 19.5253 493.821 19.4661 493.864 19.4222C493.907 19.3782 493.966 19.3529 494.028 19.3518H496.388C496.45 19.3529 496.508 19.3782 496.552 19.4222C496.595 19.4661 496.619 19.5253 496.619 19.587V19.8222H493.797V19.587Z" fill="white"/>
<rect width="17.6811" height="17.6811" transform="translate(293.661 11.6592)" fill="white" fill-opacity="0.01"/>
<path fill-rule="evenodd" clip-rule="evenodd" d="M299.644 17.5707L303.381 14.6828C303.436 14.6406 303.501 14.6145 303.569 14.6076C303.638 14.6006 303.707 14.6131 303.769 14.6435C303.831 14.6739 303.883 14.721 303.919 14.7795C303.956 14.838 303.975 14.9056 303.975 14.9745V25.9986C303.975 26.0675 303.956 26.135 303.919 26.1934C303.883 26.2518 303.83 26.2988 303.769 26.3291C303.707 26.3594 303.638 26.3718 303.569 26.3648C303.501 26.3578 303.436 26.3318 303.381 26.2896L299.726 23.4644H296.607C296.2 23.4644 295.871 23.1306 295.871 22.7299V18.3059C295.871 17.9 296.196 17.5707 296.607 17.5707H298.527L298.553 17.5714H299.644V17.5707ZM305.873 17.0439C305.599 16.8951 305.488 16.5356 305.626 16.2409C305.764 15.9462 306.097 15.8276 306.371 15.9757C308.189 16.9607 309.132 18.4886 309.132 20.4851C309.132 22.4816 308.191 24.0176 306.377 25.0269C306.104 25.1787 305.77 25.0638 305.629 24.7706C305.488 24.4773 305.595 24.1163 305.867 23.9653C307.325 23.1535 308.022 22.0167 308.022 20.4851C308.022 18.9564 307.328 17.8329 305.873 17.0439V17.0439ZM305.114 19.4345C304.841 19.2857 304.731 18.9262 304.868 18.6315C305.006 18.3368 305.339 18.2182 305.613 18.3663C306.448 18.8187 306.899 19.5495 306.899 20.488C306.899 21.4237 306.45 22.1567 305.619 22.6194C305.346 22.7711 305.011 22.6562 304.871 22.3622C304.731 22.069 304.837 21.7088 305.109 21.557C305.585 21.2933 305.789 20.9588 305.789 20.4873C305.789 20.018 305.587 19.6902 305.115 19.4338L305.114 19.4345Z" fill="white"/>
<defs>
<filter id="filter0_b_15062_39216" x="-26.1858" y="-26.3003" width="559.371" height="93.0949" filterUnits="userSpaceOnUse" color-interpolation-filters="sRGB">
<feFlood flood-opacity="0" result="BackgroundImageFix"/>
<feGaussianBlur in="BackgroundImageFix" stdDeviation="13.1703"/>
<feComposite in2="SourceAlpha" operator="in" result="effect1_backgroundBlur_15062_39216"/>
<feBlend mode="normal" in="SourceGraphic" in2="effect1_backgroundBlur_15062_39216" result="shape"/>
</filter>
<filter id="filter1_b_15062_39216" x="-20.1237" y="-26.3003" width="546.742" height="54.7018" filterUnits="userSpaceOnUse" color-interpolation-filters="sRGB">
<feFlood flood-opacity="0" result="BackgroundImageFix"/>
<feGaussianBlur in="BackgroundImageFix" stdDeviation="13.1703"/>
<feComposite in2="SourceAlpha" operator="in" result="effect1_backgroundBlur_15062_39216"/>
<feBlend mode="normal" in="SourceGraphic" in2="effect1_backgroundBlur_15062_39216" result="shape"/>
</filter>
</defs>
</svg>
