<svg width="37" height="36" viewBox="0 0 37 36" fill="none" xmlns="http://www.w3.org/2000/svg">
<path d="M22.4373 24.1875C21.7173 24.1875 20.9861 24.0187 20.3335 23.6925L15.7886 21.42V23.0625C15.7886 24.4237 16.8911 25.5263 18.2523 25.5263H26.6223C27.9835 25.5263 29.086 24.4237 29.086 23.0625V21.42L24.541 23.6925C23.8885 24.0187 23.1573 24.1875 22.4373 24.1875Z" fill="#FFA319"/>
<path d="M30.0762 14.0174L23.54 10.7325C23.2025 10.5637 22.82 10.485 22.4375 10.485C22.055 10.485 21.6725 10.5637 21.335 10.7325L14.7988 14.0062C13.955 14.4337 13.4375 15.2774 13.4375 16.2112C13.4375 17.145 13.955 17.9887 14.7988 18.405L21.335 21.6787C21.6838 21.8587 22.055 21.9375 22.4375 21.9375C22.82 21.9375 23.1912 21.8587 23.54 21.6787L30.0762 18.405C30.92 17.9887 31.4375 17.145 31.4375 16.2112C31.4375 15.2774 30.92 14.4337 30.0762 14.0174Z" fill="#FFA319"/>
<path d="M13.5388 23.0625V20.2725C12.0875 19.4287 11.1875 17.91 11.1875 16.2112C11.1875 14.4112 12.1888 12.8025 13.7862 12.0037L20.3338 8.71875C21.65 8.06623 23.225 8.06623 24.5412 8.71875L25.8125 9.36001V6.69376C25.8125 4.2412 23.8212 2.25 21.3687 2.25H10.0063C7.55377 2.25 5.5625 4.2412 5.5625 6.69376V29.3062C5.5625 31.7587 7.55377 33.75 10.0063 33.75H21.3687C23.8212 33.75 25.8125 31.7587 25.8125 29.3062V27.7763H18.2525C15.6537 27.7763 13.5388 25.6612 13.5388 23.0625ZM15.665 5.625H15.6762C16.295 5.625 16.8012 6.13126 16.8012 6.75C16.8012 7.36874 16.295 7.875 15.6762 7.875C15.0575 7.875 14.5512 7.36874 14.5512 6.75C14.5512 6.13126 15.0462 5.625 15.665 5.625Z" fill="url(#paint0_linear_15062_38944)"/>
<defs>
<linearGradient id="paint0_linear_15062_38944" x1="15.6875" y1="2.25" x2="15.6875" y2="33.75" gradientUnits="userSpaceOnUse">
<stop stop-color="#2E2A47"/>
<stop offset="1" stop-color="white" stop-opacity="0"/>
</linearGradient>
</defs>
</svg>
