<svg width="174" height="35" viewBox="0 0 174 35" fill="none" xmlns="http://www.w3.org/2000/svg">
<g clip-path="url(#clip0_15062_39356)">
<path fill-rule="evenodd" clip-rule="evenodd" d="M25.646 1.06452C25.6438 0.970877 25.6201 0.879209 25.5768 0.797421C25.5336 0.715634 25.4722 0.646183 25.398 0.595058C25.3237 0.543934 25.2387 0.512671 25.1505 0.503965C25.0622 0.495258 24.9733 0.509371 24.8914 0.545085L17.3736 3.94281C17.2761 3.9869 17.193 4.06015 17.1344 4.15352C17.0759 4.2469 17.0444 4.35633 17.0439 4.46836V5.69057C17.0439 5.76715 17.0619 5.84254 17.0962 5.91002C17.1305 5.97749 17.1801 6.03496 17.2405 6.07731C17.3008 6.11966 17.3703 6.14556 17.4423 6.15272C17.5145 6.15987 17.5873 6.14806 17.6541 6.11833L25.2615 2.69311C25.3812 2.63948 25.4831 2.54967 25.5547 2.43497C25.6262 2.32026 25.664 2.18576 25.6634 2.04839L25.646 1.06452Z" fill="#1DA1F2"/>
<path fill-rule="evenodd" clip-rule="evenodd" d="M15.6561 3.94309L8.11227 0.539249C8.04614 0.506475 7.97422 0.488776 7.90119 0.487305C7.79761 0.487855 7.69668 0.521983 7.61204 0.585081C7.53579 0.634791 7.47306 0.704568 7.42998 0.787585C7.3869 0.870602 7.36494 0.964016 7.36627 1.05869V1.97534C7.36612 2.12632 7.40798 2.27401 7.48664 2.40004C7.5653 2.52609 7.67729 2.6249 7.80867 2.68422L15.4103 6.11556C15.4737 6.14303 15.5425 6.15365 15.6107 6.1465C15.679 6.13935 15.7444 6.11465 15.8015 6.07454C15.8586 6.03444 15.9054 5.98016 15.938 5.91647C15.9707 5.85277 15.988 5.7816 15.9886 5.70917V4.46863C15.9882 4.35617 15.9565 4.24632 15.8974 4.15283C15.8382 4.05935 15.7543 3.98639 15.6561 3.94309Z" fill="#1DA1F2"/>
<path fill-rule="evenodd" clip-rule="evenodd" d="M17.3796 7.4892C17.2827 7.53181 17.2002 7.60403 17.1425 7.69656C17.0848 7.7891 17.0545 7.89774 17.0557 8.00855V9.35276C17.058 9.40047 17.0708 9.44704 17.0932 9.48856C17.1156 9.53009 17.1468 9.56552 17.1846 9.59194C17.2222 9.61845 17.2653 9.63515 17.3102 9.6408C17.3551 9.64645 17.4007 9.64098 17.4431 9.62463L25.6607 5.90976L26.2042 5.66842L26.745 5.42402L28.422 4.6511C28.5492 4.59374 28.6575 4.49783 28.7332 4.37549C28.8088 4.25315 28.8484 4.10986 28.8471 3.96373V3.16943C28.8482 3.07584 28.8271 2.98345 28.7857 2.90071C28.7443 2.81797 28.6838 2.74755 28.61 2.6959C28.5244 2.63496 28.424 2.60106 28.3208 2.59814C28.2458 2.59825 28.1717 2.61599 28.104 2.65008L26.7392 3.26108L26.1985 3.50243L25.6578 3.74683L17.3796 7.4892Z" fill="#1DA1F2"/>
<path fill-rule="evenodd" clip-rule="evenodd" d="M15.6555 7.48924L7.35706 3.73464L6.81635 3.49636L6.27566 3.2489L4.90511 2.6379C4.83796 2.60926 4.76643 2.59374 4.69403 2.59207C4.62354 2.59127 4.5536 2.60519 4.48822 2.63304C4.42284 2.66089 4.36332 2.70212 4.31307 2.75437C4.26282 2.8066 4.22284 2.86881 4.19543 2.93743C4.16802 3.00606 4.15371 3.07972 4.15333 3.15419V4.04014C4.15261 4.16025 4.18541 4.27792 4.24764 4.37845C4.30987 4.47897 4.39876 4.55788 4.5032 4.60532L6.26698 5.39963L6.80768 5.64707L7.35127 5.89147L15.5283 9.58189C15.5772 9.60363 15.6304 9.61255 15.6833 9.60787C15.7363 9.60319 15.7873 9.58507 15.8321 9.55503C15.877 9.52508 15.9143 9.48408 15.941 9.43558C15.9676 9.38707 15.9828 9.33246 15.9851 9.27641V8.01165C15.9861 7.89971 15.955 7.79008 15.8963 7.69694C15.8375 7.6038 15.7537 7.53144 15.6555 7.48924Z" fill="#1DA1F2"/>
<path fill-rule="evenodd" clip-rule="evenodd" d="M32.1658 5.07526C32.1674 4.9805 32.1458 4.8869 32.1033 4.80345C32.0608 4.72 31.9986 4.6495 31.9229 4.59873C31.8377 4.53701 31.7371 4.50303 31.6338 4.50098C31.5607 4.50245 31.4888 4.52015 31.4227 4.55291L29.9336 5.22187L29.3929 5.4693L28.8522 5.71368L26.7472 6.66367L26.2065 6.90804L25.6629 7.15547L17.3934 10.8883C17.2954 10.9307 17.2118 11.0032 17.1531 11.0963C17.0944 11.1893 17.0633 11.2988 17.0637 11.4106V17.0128C17.0653 16.9976 17.0653 16.9822 17.0637 16.967V17.8192V18.4302V25.3062C17.0623 25.3525 17.0672 25.3988 17.0782 25.4436V26.299V26.9099V33.8194C17.0761 33.9165 17.0989 34.0123 17.1442 34.0968C17.1896 34.1812 17.2556 34.2511 17.3355 34.2991C17.4123 34.3514 17.5007 34.3818 17.592 34.3871C17.6832 34.3925 17.7742 34.3727 17.856 34.3296L31.9894 26.7694C32.0782 26.7217 32.1524 26.6485 32.2035 26.5582C32.2546 26.468 32.2807 26.3644 32.2785 26.2592L32.1658 5.07526Z" fill="#1DA1F2"/>
<path fill-rule="evenodd" clip-rule="evenodd" d="M15.6559 10.8881L7.34871 7.13092L6.80801 6.88655L6.26441 6.64522L4.15366 5.69218L3.61296 5.44475L3.07226 5.20038L1.58894 4.53141C1.52012 4.50154 1.44649 4.48598 1.37208 4.4856C1.26913 4.48743 1.16882 4.52028 1.08294 4.58028C1.00822 4.63073 0.946766 4.7003 0.904304 4.78254C0.861843 4.86478 0.839747 4.95702 0.840057 5.05071L0.77933 26.2591C0.778225 26.364 0.804664 26.4673 0.855702 26.5573C0.90674 26.6474 0.980383 26.7207 1.06848 26.7693L15.2019 34.3295C15.2846 34.3717 15.376 34.3916 15.4679 34.3874C15.5598 34.3831 15.6492 34.3549 15.7281 34.305C15.8074 34.2546 15.873 34.1834 15.9186 34.0983C15.9642 34.0132 15.9882 33.9171 15.9883 33.8193V11.4104C15.9886 11.2983 15.9571 11.1886 15.8978 11.0955C15.8386 11.0025 15.7543 10.9302 15.6559 10.8881Z" fill="#1DA1F2"/>
<path fill-rule="evenodd" clip-rule="evenodd" d="M13.2294 25.5631C13.1392 25.6191 13.0367 25.649 12.9322 25.6496C12.8277 25.6503 12.7248 25.6217 12.6341 25.5668C12.5433 25.5119 12.468 25.4326 12.4156 25.337C12.3632 25.2414 12.3358 25.1328 12.3359 25.0224V19.4568V13.8913C12.3359 13.7811 12.3633 13.6729 12.4153 13.5774C12.4673 13.4819 12.5421 13.4025 12.6323 13.3471C12.7225 13.2917 12.8247 13.2624 12.929 13.262C13.0333 13.2614 13.1359 13.2899 13.2265 13.3445L17.7921 16.1212L22.3577 18.8978C22.4477 18.9532 22.5224 19.0326 22.5743 19.128C22.6262 19.2234 22.6535 19.3315 22.6535 19.4415C22.6535 19.5516 22.6262 19.6597 22.5743 19.7551C22.5224 19.8505 22.4477 19.9299 22.3577 19.9853L17.7979 22.7742L13.2294 25.5631Z" fill="white"/>
<path d="M56.9083 9.33631H50.5768V28.1296H46.6704V9.33631H40.3389V5.9458H56.9083V9.33631Z" fill="#1F3965"/>
<path d="M65.2003 18.4492C65.2003 17.9582 65.1326 17.498 64.997 17.0684C64.8711 16.6286 64.6775 16.2451 64.4161 15.9178C64.1547 15.5905 63.8207 15.3348 63.4141 15.1507C63.0172 14.9564 62.5525 14.8593 62.02 14.8593C60.9842 14.8593 60.166 15.1712 59.5658 15.7951C58.9753 16.4189 58.5977 17.3037 58.4331 18.4492H65.2003ZM58.3605 20.735C58.4186 21.543 58.5542 22.2436 58.7671 22.8368C58.9801 23.4198 59.2609 23.9056 59.6094 24.2943C59.9579 24.6727 60.3693 24.9591 60.8437 25.1534C61.3278 25.3375 61.8603 25.4295 62.4412 25.4295C63.022 25.4295 63.5206 25.3579 63.9369 25.2148C64.3629 25.0715 64.7307 24.9131 65.0406 24.7391C65.36 24.5652 65.636 24.4067 65.8683 24.2635C66.1103 24.1203 66.3427 24.0488 66.5653 24.0488C66.8654 24.0488 67.0881 24.1664 67.2333 24.4016L68.2644 25.7824C67.8675 26.2733 67.4221 26.6875 66.9284 27.025C66.4346 27.3523 65.9167 27.6182 65.3746 27.8228C64.842 28.0171 64.2951 28.1552 63.7336 28.237C63.1817 28.3189 62.6445 28.3598 62.1216 28.3598C61.0858 28.3598 60.1225 28.1808 59.2318 27.8228C58.3412 27.4546 57.5666 26.9176 56.9083 26.2119C56.25 25.496 55.7321 24.6164 55.3545 23.5732C54.9769 22.5198 54.7881 21.3026 54.7881 19.9219C54.7881 18.8481 54.9527 17.8406 55.2819 16.8997C55.611 15.9485 56.0806 15.1252 56.6905 14.4296C57.3101 13.7239 58.0604 13.1666 58.9413 12.7574C59.832 12.3483 60.834 12.1438 61.9474 12.1438C62.8865 12.1438 63.7529 12.3024 64.5468 12.6194C65.3407 12.9364 66.0232 13.4018 66.5944 14.0155C67.1656 14.6189 67.6109 15.3655 67.9304 16.2553C68.2596 17.1349 68.4241 18.1424 68.4241 19.2776C68.4241 19.8503 68.366 20.239 68.2499 20.4436C68.1337 20.6378 67.911 20.735 67.5819 20.735H58.3605Z" fill="#1F3965"/>
<path d="M78.9865 21.4102C77.9507 21.4614 77.0794 21.5584 76.3727 21.7017C75.6659 21.8346 75.0995 22.0085 74.6736 22.2232C74.2476 22.438 73.9427 22.6887 73.7587 22.975C73.5748 23.2614 73.4828 23.5733 73.4828 23.9108C73.4828 24.5756 73.6667 25.0512 74.0347 25.3376C74.4122 25.624 74.9011 25.7671 75.5014 25.7671C76.2371 25.7671 76.8712 25.629 77.4037 25.353C77.9458 25.0666 78.4735 24.637 78.9865 24.0643V21.4102ZM70.7672 14.5832C72.4808 12.9263 74.5428 12.0979 76.9535 12.0979C77.8248 12.0979 78.6041 12.2514 79.2915 12.5582C79.9789 12.8548 80.5598 13.2741 81.0341 13.8161C81.5085 14.348 81.8668 14.9872 82.1088 15.7338C82.3605 16.4804 82.4863 17.2987 82.4863 18.1885V28.1297H80.8599C80.5211 28.1297 80.2597 28.0786 80.0757 27.9763C79.8918 27.8638 79.7465 27.6439 79.6401 27.3166L79.3205 26.1814C78.943 26.5394 78.5751 26.8564 78.2169 27.1325C77.8587 27.3984 77.486 27.6234 77.0987 27.8076C76.7115 27.9917 76.2952 28.1297 75.8498 28.2218C75.4142 28.324 74.9301 28.3752 74.3977 28.3752C73.7684 28.3752 73.1875 28.2882 72.655 28.1144C72.1226 27.9303 71.6627 27.6593 71.2754 27.3013C70.8882 26.9434 70.5881 26.4985 70.3751 25.9666C70.1621 25.4348 70.0557 24.816 70.0557 24.1103C70.0557 23.7114 70.1186 23.3177 70.2444 22.9289C70.3703 22.5301 70.5736 22.1517 70.8543 21.7937C71.1448 21.4357 71.5175 21.0983 71.9725 20.7812C72.4275 20.4641 72.9842 20.1879 73.6425 19.9528C74.3105 19.7175 75.085 19.5283 75.966 19.3851C76.847 19.2317 77.8538 19.1396 78.9865 19.109V18.1885C78.9865 17.135 78.7735 16.3577 78.3476 15.8566C77.9216 15.3452 77.3068 15.0895 76.5034 15.0895C75.9224 15.0895 75.4384 15.1611 75.0511 15.3043C74.6736 15.4474 74.3395 15.6111 74.0491 15.7952C73.7587 15.9691 73.4924 16.1276 73.2504 16.2708C73.0181 16.414 72.7567 16.4856 72.4663 16.4856C72.2145 16.4856 72.0015 16.419 71.8273 16.2861C71.653 16.143 71.5127 15.9793 71.4061 15.7952L70.7672 14.5832Z" fill="#1F3965"/>
<path d="M96.5382 15.7183C96.4319 15.8615 96.3257 15.9741 96.2187 16.0559C96.1217 16.1377 95.977 16.1786 95.783 16.1786C95.599 16.1786 95.4201 16.1223 95.2461 16.0099C95.0714 15.8872 94.8631 15.7542 94.6215 15.611C94.3798 15.4575 94.0888 15.3246 93.7501 15.2121C93.4206 15.0894 93.0092 15.028 92.5158 15.028C91.8869 15.028 91.335 15.1507 90.86 15.3962C90.3858 15.6314 89.9886 15.9741 89.6692 16.424C89.3597 16.8741 89.1273 17.4213 88.9726 18.0656C88.8178 18.6997 88.7401 19.4208 88.7401 20.2287C88.7401 21.0674 88.822 21.8141 88.9868 22.4686C89.1615 23.1232 89.4082 23.6755 89.7277 24.1255C90.0471 24.5652 90.4343 24.9028 90.8892 25.138C91.3442 25.363 91.8576 25.4755 92.4288 25.4755C93 25.4755 93.4599 25.4039 93.8086 25.2608C94.1665 25.1073 94.4667 24.9437 94.7084 24.7698C94.9509 24.5857 95.1592 24.4221 95.3331 24.2789C95.5171 24.1255 95.7203 24.0488 95.9427 24.0488C96.2338 24.0488 96.4512 24.1664 96.5967 24.4016L97.6278 25.7824C97.2306 26.2733 96.7999 26.6875 96.3349 27.025C95.87 27.3523 95.3866 27.6182 94.8832 27.8228C94.389 28.0171 93.8764 28.1552 93.3437 28.237C92.821 28.3189 92.2983 28.3598 91.7748 28.3598C90.8558 28.3598 89.9886 28.1808 89.1758 27.8228C88.3629 27.4546 87.6513 26.9227 87.0408 26.2273C86.4312 25.5318 85.947 24.6829 85.5891 23.6805C85.2403 22.668 85.0664 21.5174 85.0664 20.2287C85.0664 19.0731 85.2211 18.0043 85.5305 17.0224C85.85 16.0303 86.3149 15.1763 86.9246 14.4604C87.535 13.7342 88.2902 13.1666 89.19 12.7574C90.0906 12.3483 91.1267 12.1438 92.2983 12.1438C93.4114 12.1438 94.384 12.333 95.2169 12.7114C96.059 13.0899 96.8141 13.6319 97.4823 14.3377L96.5382 15.7183Z" fill="#1F3965"/>
<path d="M103.463 14.0769C104.043 13.5041 104.682 13.0388 105.379 12.6808C106.077 12.3229 106.895 12.1439 107.834 12.1439C108.647 12.1439 109.368 12.2922 109.997 12.5888C110.627 12.8752 111.15 13.2842 111.566 13.8161C111.992 14.3378 112.311 14.9667 112.524 15.7031C112.747 16.4292 112.858 17.2321 112.858 18.1117V28.1297H109.271V18.1117C109.271 17.1503 109.063 16.4088 108.647 15.8872C108.23 15.3554 107.596 15.0895 106.744 15.0895C106.124 15.0895 105.544 15.2377 105.001 15.5343C104.459 15.831 103.947 16.235 103.463 16.7463V28.1297H99.876V5.33228H103.463V14.0769Z" fill="#1F3965"/>
<path d="M116.27 28.1296V12.3893H118.463C118.927 12.3893 119.232 12.6194 119.378 13.0796L119.61 14.2456C119.871 13.9388 120.142 13.6575 120.423 13.4018C120.713 13.1461 121.019 12.9262 121.338 12.7422C121.667 12.5581 122.015 12.4148 122.383 12.3125C122.761 12.2001 123.173 12.1438 123.618 12.1438C124.557 12.1438 125.327 12.4148 125.927 12.9569C126.537 13.4888 126.992 14.1996 127.292 15.0894C127.524 14.5677 127.815 14.1228 128.164 13.7547C128.511 13.3762 128.894 13.0694 129.31 12.8341C129.727 12.599 130.167 12.4251 130.632 12.3125C131.106 12.2001 131.581 12.1438 132.055 12.1438C132.878 12.1438 133.609 12.2768 134.248 12.5427C134.887 12.8086 135.424 13.1972 135.86 13.7087C136.295 14.22 136.625 14.8439 136.847 15.5803C137.08 16.3167 137.196 17.1605 137.196 18.1116V28.1296H133.609V18.1116C133.609 17.1093 133.401 16.3576 132.985 15.8564C132.568 15.3451 131.959 15.0894 131.155 15.0894C130.787 15.0894 130.443 15.1558 130.124 15.2888C129.814 15.4218 129.538 15.6161 129.296 15.8718C129.063 16.1172 128.879 16.4292 128.744 16.8076C128.608 17.186 128.541 17.6207 128.541 18.1116V28.1296H124.939V18.1116C124.939 17.0582 124.736 16.2911 124.329 15.8104C123.932 15.3297 123.347 15.0894 122.572 15.0894C122.05 15.0894 121.561 15.2274 121.106 15.5036C120.66 15.7695 120.244 16.1377 119.857 16.6082V28.1296H116.27Z" fill="#1F3965"/>
<path d="M144.323 12.3893V28.1296H140.722V12.3893H144.323ZM144.817 7.80212C144.817 8.12941 144.754 8.43624 144.628 8.72261C144.502 9.00898 144.333 9.25956 144.119 9.47431C143.916 9.68916 143.675 9.86302 143.394 9.99598C143.113 10.1187 142.812 10.18 142.493 10.18C142.184 10.18 141.888 10.1187 141.607 9.99598C141.336 9.86302 141.099 9.68916 140.896 9.47431C140.692 9.25956 140.528 9.00898 140.402 8.72261C140.286 8.43624 140.228 8.12941 140.228 7.80212C140.228 7.46461 140.286 7.14755 140.402 6.85095C140.528 6.55435 140.692 6.29866 140.896 6.08388C141.099 5.8691 141.336 5.70034 141.607 5.57761C141.888 5.44465 142.184 5.37817 142.493 5.37817C142.812 5.37817 143.113 5.44465 143.394 5.57761C143.675 5.70034 143.916 5.8691 144.119 6.08388C144.333 6.29866 144.502 6.55435 144.628 6.85095C144.754 7.14755 144.817 7.46461 144.817 7.80212Z" fill="#1F3965"/>
<path d="M151.335 14.3223C151.634 14.0052 151.949 13.7138 152.278 13.4479C152.617 13.1717 152.97 12.9416 153.338 12.7574C153.716 12.5632 154.118 12.4148 154.543 12.3125C154.97 12.2001 155.434 12.1438 155.937 12.1438C156.751 12.1438 157.472 12.2921 158.102 12.5887C158.73 12.8751 159.253 13.2842 159.67 13.816C160.096 14.3377 160.415 14.9666 160.628 15.7031C160.851 16.4292 160.962 17.232 160.962 18.1116V28.1296H157.376V18.1116C157.376 17.1502 157.167 16.4088 156.751 15.8871C156.335 15.3553 155.701 15.0894 154.848 15.0894C154.229 15.0894 153.648 15.2377 153.106 15.5342C152.564 15.8309 152.05 16.2349 151.566 16.7462V28.1296H147.979V12.3893H150.172C150.637 12.3893 150.942 12.6194 151.087 13.0796L151.335 14.3223Z" fill="#1F3965"/>
<path d="M169.142 28.375C167.844 28.375 166.847 27.9915 166.15 27.2244C165.462 26.4471 165.118 25.3783 165.118 24.0181V15.2274H163.594C163.4 15.2274 163.236 15.1609 163.101 15.028C162.965 14.895 162.896 14.6955 162.896 14.4296V12.9262L165.293 12.512L166.048 8.21636C166.097 8.01181 166.189 7.85328 166.324 7.74078C166.46 7.62827 166.634 7.57202 166.847 7.57202H168.706V12.5273H172.685V15.2274H168.706V23.7573C168.706 24.2482 168.817 24.6317 169.04 24.9079C169.272 25.184 169.587 25.3221 169.984 25.3221C170.206 25.3221 170.39 25.2965 170.536 25.2454C170.69 25.184 170.821 25.1227 170.927 25.0613C171.043 25 171.145 24.9437 171.232 24.8925C171.319 24.8311 171.407 24.8005 171.494 24.8005C171.6 24.8005 171.687 24.8311 171.755 24.8925C171.823 24.9437 171.895 25.0255 171.973 25.138L173.048 26.979C172.525 27.4392 171.925 27.787 171.247 28.0222C170.569 28.2574 169.868 28.375 169.142 28.375Z" fill="#1F3965"/>
</g>
<defs>
<clipPath id="clip0_15062_39356">
<rect width="172.269" height="34.4547" fill="white" transform="translate(0.779297 0.487305)"/>
</clipPath>
</defs>
</svg>
