<svg width="382" height="447" viewBox="0 0 382 447" fill="none" xmlns="http://www.w3.org/2000/svg">
<mask id="mask0_15200_13473" style="mask-type:alpha" maskUnits="userSpaceOnUse" x="0" y="0" width="382" height="447">
<rect width="382" height="447" rx="40" fill="#EAEBFF"/>
</mask>
<g mask="url(#mask0_15200_13473)">
<g opacity="0.1" filter="url(#filter0_f_15200_13473)">
<circle cx="191" cy="86.5113" r="210.333" transform="rotate(9.942 191 86.5113)" fill="#3315E8"/>
</g>
<g filter="url(#filter1_b_15200_13473)">
<circle cx="191" cy="62.4668" r="225.92" fill="url(#paint0_linear_15200_13473)" fill-opacity="0.6"/>
<circle cx="191" cy="62.4668" r="222.42" stroke="url(#paint1_linear_15200_13473)" stroke-width="7"/>
</g>
<g filter="url(#filter2_b_15200_13473)">
<circle cx="191" cy="58.8841" r="205.166" transform="rotate(9.942 191 58.8841)" fill="white" fill-opacity="0.8"/>
<circle cx="191" cy="58.8841" r="204.666" transform="rotate(9.942 191 58.8841)" stroke="url(#paint2_linear_15200_13473)"/>
</g>
</g>
<path fill-rule="evenodd" clip-rule="evenodd" d="M262.916 122.756C263.791 124.503 264.077 126.492 264.172 128.727L264.296 131.706V152.539L264.423 155.521C264.677 160.392 267.78 163.993 272.02 164.3L274.582 164.446V131.706L274.709 128.727C274.815 126.517 275.098 124.491 275.987 122.731C276.892 120.926 278.192 119.428 279.755 118.388C281.318 117.348 283.091 116.803 284.894 116.806C286.697 116.81 288.468 117.363 290.028 118.41C291.588 119.456 292.883 120.959 293.783 122.768C294.658 124.516 294.93 126.542 295.036 128.727L295.163 131.697V152.539L295.289 155.521C295.554 160.417 298.633 164.018 302.886 164.3L305.449 164.446V128.727C305.449 122.411 303.282 116.353 299.424 111.886C295.567 107.419 290.335 104.908 284.879 104.905C281.959 104.902 279.072 105.62 276.41 107.011C273.749 108.403 271.375 110.436 269.446 112.974C267.517 110.437 265.142 108.404 262.481 107.012C259.82 105.62 256.933 104.901 254.013 104.902C249.741 104.902 245.776 106.403 242.493 108.994C240.489 106.406 236.006 104.902 233.433 104.902V164.446L236.006 164.3C240.311 163.971 243.422 160.467 243.589 155.521L243.727 152.539V131.706L243.854 128.727C243.962 126.479 244.232 124.503 245.109 122.743C246.016 120.939 247.315 119.442 248.877 118.401C250.439 117.359 252.21 116.811 254.013 116.81C255.817 116.81 257.589 117.36 259.152 118.404C260.715 119.447 262.013 120.948 262.916 122.756ZM86.8378 164.303L89.4114 164.446H127.988L127.861 161.477C127.512 156.581 124.517 153.005 120.275 152.686L117.701 152.539H94.5585L125.414 116.807L125.287 113.84C125.087 108.894 121.965 105.321 117.701 105.049L115.128 104.915L76.5518 104.902L76.6787 107.882C77.0162 112.73 80.0543 116.382 84.2616 116.663L86.8378 116.81H109.981L79.1253 152.542L79.2522 155.521C79.5061 160.429 82.5657 163.984 86.8378 164.3V164.303ZM223.336 113.618C225.724 116.383 227.619 119.665 228.912 123.277C230.204 126.889 230.87 130.761 230.87 134.671C230.87 138.581 230.204 142.453 228.912 146.065C227.619 149.678 225.724 152.96 223.336 155.724C218.51 161.306 211.967 164.442 205.145 164.442C198.323 164.442 191.781 161.306 186.955 155.724C176.912 144.098 176.912 125.244 186.955 113.618C189.341 110.854 192.175 108.662 195.293 107.166C198.411 105.67 201.754 104.9 205.129 104.899C208.51 104.896 211.858 105.665 214.982 107.162C218.106 108.659 220.945 110.854 223.336 113.621V113.618ZM216.058 122.049C218.951 125.401 220.576 129.945 220.576 134.682C220.576 139.42 218.951 143.964 216.058 147.315C213.163 150.664 209.238 152.545 205.145 152.545C201.053 152.545 197.128 150.664 194.233 147.315C191.34 143.964 189.715 139.42 189.715 134.682C189.715 129.945 191.34 125.401 194.233 122.049C197.128 118.701 201.053 116.819 205.145 116.819C209.238 116.819 213.163 118.701 216.058 122.049ZM151.152 104.899C154.528 104.9 157.87 105.671 160.989 107.168C164.107 108.664 166.94 110.857 169.326 113.621C179.372 125.244 179.372 144.101 169.326 155.724C164.501 161.306 157.958 164.442 151.136 164.442C144.314 164.442 137.771 161.306 132.946 155.724C122.903 144.098 122.903 125.244 132.946 113.618C135.332 110.854 138.165 108.662 141.284 107.166C144.402 105.67 147.744 104.9 151.12 104.899H151.152ZM162.049 122.043C164.942 125.395 166.568 129.939 166.568 134.678C166.568 139.416 164.942 143.96 162.049 147.312C159.154 150.661 155.228 152.542 151.136 152.542C147.043 152.542 143.118 150.661 140.223 147.312C137.331 143.961 135.706 139.417 135.706 134.679C135.706 129.941 137.331 125.398 140.223 122.046C143.118 118.697 147.043 116.816 151.136 116.816C155.228 116.816 159.154 118.697 162.049 122.046V122.043Z" fill="#2D8CFF"/>
<defs>
<filter id="filter0_f_15200_13473" x="-89.3677" y="-193.857" width="560.736" height="560.736" filterUnits="userSpaceOnUse" color-interpolation-filters="sRGB">
<feFlood flood-opacity="0" result="BackgroundImageFix"/>
<feBlend mode="normal" in="SourceGraphic" in2="BackgroundImageFix" result="shape"/>
<feGaussianBlur stdDeviation="35" result="effect1_foregroundBlur_15200_13473"/>
</filter>
<filter id="filter1_b_15200_13473" x="-104.92" y="-233.454" width="591.841" height="591.841" filterUnits="userSpaceOnUse" color-interpolation-filters="sRGB">
<feFlood flood-opacity="0" result="BackgroundImageFix"/>
<feGaussianBlur in="BackgroundImageFix" stdDeviation="35"/>
<feComposite in2="SourceAlpha" operator="in" result="effect1_backgroundBlur_15200_13473"/>
<feBlend mode="normal" in="SourceGraphic" in2="effect1_backgroundBlur_15200_13473" result="shape"/>
</filter>
<filter id="filter2_b_15200_13473" x="-84.2002" y="-216.316" width="550.4" height="550.401" filterUnits="userSpaceOnUse" color-interpolation-filters="sRGB">
<feFlood flood-opacity="0" result="BackgroundImageFix"/>
<feGaussianBlur in="BackgroundImageFix" stdDeviation="35"/>
<feComposite in2="SourceAlpha" operator="in" result="effect1_backgroundBlur_15200_13473"/>
<feBlend mode="normal" in="SourceGraphic" in2="effect1_backgroundBlur_15200_13473" result="shape"/>
</filter>
<linearGradient id="paint0_linear_15200_13473" x1="191" y1="-163.454" x2="191" y2="288.387" gradientUnits="userSpaceOnUse">
<stop stop-color="#7838FF"/>
<stop offset="1" stop-color="#34CEFF"/>
</linearGradient>
<linearGradient id="paint1_linear_15200_13473" x1="227.287" y1="275.688" x2="144.655" y2="-195.734" gradientUnits="userSpaceOnUse">
<stop stop-color="white"/>
<stop offset="1" stop-color="white" stop-opacity="0"/>
</linearGradient>
<linearGradient id="paint2_linear_15200_13473" x1="156.365" y1="-139.975" x2="195.813" y2="85.0741" gradientUnits="userSpaceOnUse">
<stop stop-color="white"/>
<stop offset="0.972121" stop-color="white" stop-opacity="0"/>
</linearGradient>
</defs>
</svg>
